<svg xmlns="http://www.w3.org/2000/svg" viewBox="0 0 395.44 395.44"><defs><style>.a{fill:#777;}.b{fill:#56c739;}.c{fill:#4a90e2;}</style></defs><title>react-for-absolute-beginners</title><circle cx="197.72" cy="197.72" r="197.72"/><path class="a" d="M227,56.44A146.28,146.28,0,0,1,343.52,171h28.82C359.47,97,301,39.13,227,27.74V56.44Z" transform="translate(-2.61 -2.61)"/><path class="a" d="M344.22,228C333.22,287,286,333.22,227,344.22v28.71C302,361.36,361.36,302,372.93,228H344.22Z" transform="translate(-2.61 -2.61)"/><path class="b" d="M57.15,171C69.17,113,115,68.38,171,56.87V28.11C99,40.3,41.07,97,28.33,171H57.15Z" transform="translate(-2.61 -2.61)"/><path class="a" d="M171,343.8C113,332.05,67.31,285,56.44,228H27.74C39.2,301,97,360.17,171,372.56V343.8Z" transform="translate(-2.61 -2.61)"/><circle class="c" cx="197.92" cy="197.58" r="17.96"/><path class="c" d="M200.53,163.7V168a234.71,234.71,0,0,1,33.78,2.4A162.06,162.06,0,0,1,262.5,177a92.25,92.25,0,0,1,13.1,5.58,56.1,56.1,0,0,1,7.55,4.69,30.42,30.42,0,0,1,7.16,7.05,14.93,14.93,0,0,1,1.65,3.15,8.62,8.62,0,0,1,.5,2.69,8.15,8.15,0,0,1-.43,2.51,15.79,15.79,0,0,1-3.11,5.29,33.21,33.21,0,0,1-4.55,4.4,60.21,60.21,0,0,1-10.23,6.51,97.89,97.89,0,0,1-13.88,5.73,154.25,154.25,0,0,1-27.41,6,245.45,245.45,0,0,1-32.38,2.07,257.7,257.7,0,0,1-33.17-2,144.34,144.34,0,0,1-27.8-6.15,92.83,92.83,0,0,1-13.56-5.83,62.12,62.12,0,0,1-7.8-4.94,32,32,0,0,1-7.41-7.48A13.15,13.15,0,0,1,109,203a8.51,8.51,0,0,1-.51-2.83,8.28,8.28,0,0,1,.35-2.36,14.87,14.87,0,0,1,2.76-4.94,31.41,31.41,0,0,1,4.08-4.12,55.18,55.18,0,0,1,9.23-6.12,87.29,87.29,0,0,1,12.66-5.48,159.65,159.65,0,0,1,28.55-6.73A236.22,236.22,0,0,1,200.4,168v-8.57a244.44,244.44,0,0,0-35.53,2.54,168.69,168.69,0,0,0-30.13,7.12,98.69,98.69,0,0,0-14.1,6.12,69.32,69.32,0,0,0-8.45,5.33,37.47,37.47,0,0,0-8.91,9.12,22.73,22.73,0,0,0-2.54,5.11,16.5,16.5,0,0,0-.93,5.44,17.24,17.24,0,0,0,.78,5,24.91,24.91,0,0,0,4.51,8.16A49.15,49.15,0,0,0,117.78,224a92.52,92.52,0,0,0,18.78,8.66,152.6,152.6,0,0,0,29.49,6.51,269.78,269.78,0,0,0,34.28,2.07,251.35,251.35,0,0,0,33.53-2.15,160.71,160.71,0,0,0,28.95-6.4,103.37,103.37,0,0,0,15.32-6.37,72.07,72.07,0,0,0,9.2-5.62A41.18,41.18,0,0,0,297,211.2a24.64,24.64,0,0,0,2.79-5.33,16.43,16.43,0,0,0,.22-10.67,23.94,23.94,0,0,0-4.44-7.91,40.47,40.47,0,0,0-5.4-5.33,67,67,0,0,0-11-7.15,99.66,99.66,0,0,0-14.13-6,169.88,169.88,0,0,0-29.73-7,242.22,242.22,0,0,0-35-2.5v4.4h0.19Zm-31.77,18.36,3.72,2.15a228.13,228.13,0,0,1,19-28.05A158.86,158.86,0,0,1,211.26,135a82,82,0,0,1,17-11.7,41.29,41.29,0,0,1,7.26-2.86,22.59,22.59,0,0,1,5.9-.9,13,13,0,0,1,2.79.29,7,7,0,0,1,2.11.82,9,9,0,0,1,2.68,2.46,15.26,15.26,0,0,1,1.79,3.15,29.93,29.93,0,0,1,2,6.87,54,54,0,0,1,.72,9.12,92.84,92.84,0,0,1-2,18.46A155,155,0,0,1,243,187.52,243.51,243.51,0,0,1,228.6,216.6a253.58,253.58,0,0,1-18.32,27.73,150.63,150.63,0,0,1-19.25,21,80.19,80.19,0,0,1-17.53,12,40.5,40.5,0,0,1-7.59,2.9,23.39,23.39,0,0,1-6.19.93,13,13,0,0,1-3-.32,7.35,7.35,0,0,1-2.25-.9,9,9,0,0,1-2.61-2.4,15.82,15.82,0,0,1-1.76-3,29.58,29.58,0,0,1-1.93-6.58,49.53,49.53,0,0,1-.72-8.76A85.3,85.3,0,0,1,149,243.22a161.66,161.66,0,0,1,8.41-28.12,237.63,237.63,0,0,1,15-30.92L168.74,182,165,179.89a242.39,242.39,0,0,0-15.53,32,168.81,168.81,0,0,0-8.87,29.66,95.7,95.7,0,0,0-1.79,17.49,49.2,49.2,0,0,0,2.65,17.1,25.28,25.28,0,0,0,3.47,6.48,16.9,16.9,0,0,0,5.19,4.65,17.34,17.34,0,0,0,4.58,1.79,21.4,21.4,0,0,0,5,.57,32.61,32.61,0,0,0,8.44-1.22,57.38,57.38,0,0,0,13.81-6,94.94,94.94,0,0,0,14.67-10.7A152,152,0,0,0,217,249.44,263.33,263.33,0,0,0,236,220.78a252.08,252.08,0,0,0,14.88-30.13,162.53,162.53,0,0,0,8.91-28.27A100.6,100.6,0,0,0,262,142.2a51.52,51.52,0,0,0-2.68-17.64,26.13,26.13,0,0,0-3.51-6.65,17.6,17.6,0,0,0-5.26-4.76,16.09,16.09,0,0,0-4.4-1.72,21.12,21.12,0,0,0-4.8-.54,30.77,30.77,0,0,0-8.23,1.22A56.59,56.59,0,0,0,219.75,118a98.91,98.91,0,0,0-14.21,10.42,170,170,0,0,0-20.93,22.27,242.12,242.12,0,0,0-19.68,29.09l3.79,2.22h0Zm0,36.71,3.72-2.15A229.67,229.67,0,0,1,157.7,186.2a160.45,160.45,0,0,1-8.41-27.73,88.34,88.34,0,0,1-1.79-16.85,41.8,41.8,0,0,1,2-14,15.92,15.92,0,0,1,2.22-4.26,8.57,8.57,0,0,1,2.53-2.36,9,9,0,0,1,2.22-.86,12,12,0,0,1,2.93-.32,24.62,24.62,0,0,1,6.3,1,50.2,50.2,0,0,1,12,5.48,96.54,96.54,0,0,1,13.81,10.31,152.83,152.83,0,0,1,19,20.68,241.61,241.61,0,0,1,18,27,264.28,264.28,0,0,1,14.88,29.7A146.22,146.22,0,0,1,252,241.06a87.76,87.76,0,0,1,1.79,16.85,44.24,44.24,0,0,1-2.25,15,18.42,18.42,0,0,1-2.4,4.62,9.41,9.41,0,0,1-2.76,2.54,9.13,9.13,0,0,1-2.18.86,11.94,11.94,0,0,1-2.9.32,22.76,22.76,0,0,1-5.76-.86,47.5,47.5,0,0,1-11-4.83A85.34,85.34,0,0,1,212,266.39a158.52,158.52,0,0,1-20.15-21.33,232.48,232.48,0,0,1-19.29-28.41l-3.76,2.11-3.72,2.15a238.64,238.64,0,0,0,20,29.44,168.52,168.52,0,0,0,21.25,22.51A87.27,87.27,0,0,0,224.7,285.3a48.38,48.38,0,0,0,8.59,3.29,30.66,30.66,0,0,0,8.05,1.18,20.21,20.21,0,0,0,4.9-.57,16.83,16.83,0,0,0,4.47-1.79,18,18,0,0,0,5.33-4.83,23.72,23.72,0,0,0,2.83-4.94,38.83,38.83,0,0,0,2.65-9.05,63.78,63.78,0,0,0,.89-10.81,98.42,98.42,0,0,0-1.93-18.54,153.23,153.23,0,0,0-9.12-28.77A266.52,266.52,0,0,0,236,179.79a257.58,257.58,0,0,0-18.64-27.94,162.83,162.83,0,0,0-20-21.86,93.84,93.84,0,0,0-19.93-13.92,53.5,53.5,0,0,0-9.27-3.69A32.56,32.56,0,0,0,159.5,111a20.46,20.46,0,0,0-4.93.57,17.05,17.05,0,0,0-4.51,1.79,17.76,17.76,0,0,0-5.15,4.65,23.5,23.5,0,0,0-2.68,4.72,38,38,0,0,0-2.47,8.55A61,61,0,0,0,139,141.5,98.13,98.13,0,0,0,140.9,160a168.46,168.46,0,0,0,8.84,29.23,238.9,238.9,0,0,0,15.39,31.56l3.65-2h0Z" transform="translate(-2.61 -2.61)"/></svg>