<svg width="20" height="20" viewBox="0 0 20 20" xmlns="http://www.w3.org/2000/svg"><path d="M10 0C4.477 0 0 4.59 0 10.253c0 4.53 2.865 8.373 6.84 9.73.5.093.68-.223.68-.495 0-.243-.007-.888-.012-1.744-2.782.62-3.37-1.374-3.37-1.374-.453-1.185-1.11-1.5-1.11-1.5-.907-.636.07-.624.07-.624 1.003.073 1.53 1.057 1.53 1.057.893 1.567 2.342 1.114 2.912.852.09-.662.35-1.114.635-1.37-2.22-.26-4.555-1.14-4.555-5.068 0-1.12.39-2.035 1.03-2.75-.104-.26-.447-1.303.097-2.715 0 0 .84-.275 2.75 1.052.797-.228 1.653-.342 2.503-.346.85.004 1.705.118 2.504.346 1.91-1.327 2.747-1.052 2.747-1.052.547 1.412.204 2.455.1 2.714.642.716 1.03 1.632 1.03 2.75 0 3.94-2.34 4.807-4.567 5.06.36.317.678.943.678 1.9 0 1.37-.01 2.476-.01 2.812 0 .274.18.593.687.493C17.137 18.623 20 14.783 20 10.254 20 4.59 15.522 0 10 0"/></svg>
