<svg xmlns="http://www.w3.org/2000/svg" viewBox="0 0 48 48"><defs><style>.a{fill:none;}.b{clip-path:url(#a);}.c{clip-path:url(#b);}</style><clipPath id="a" transform="translate(1.5 1.5)"><path class="a" d="M0 0h45v45H0z"/></clipPath><clipPath id="b" transform="translate(1.5 1.5)"><rect class="a" width="45" height="45" rx="3.99" ry="3.99"/></clipPath></defs><path class="b c d" d="M42.5 48h-37A5.5 5.5 0 0 1 0 42.5v-37A5.5 5.5 0 0 1 5.5 0h37A5.5 5.5 0 0 1 48 5.5v37a5.5 5.5 0 0 1-5.5 5.5zM5.5 3A2.5 2.5 0 0 0 3 5.5v37A2.5 2.5 0 0 0 5.5 45h37a2.5 2.5 0 0 0 2.5-2.5v-37A2.5 2.5 0 0 0 42.5 3h-37z"/><path class="b d" d="M33.8 37.36l-6-1.18-.59-.9 3.81-16.69h-14l3.78 16.69-.59.9-6 1.18-.87-.56-4.52-19 .15-.65 3.19-3.86 1.88-2.39.59-.29h18.82l.59.29 1.55 2 3.46 4.27.15.65-4.52 19zM10.5 18.59l4.09 17.16 4.58-.89-3.73-16.27H10.5zm18.3 16.27l4.58.89 4.12-17.16h-5zm4.06-17.77h4.11l-3.19-4zm-16.22 0h14.67l1.13-4.94H15.5zm-5.58 0h4l-.9-3.93-.91 1.1z"/></svg>
