<svg xmlns="http://www.w3.org/2000/svg" viewBox="0 0 45 45"><path class="a" d="M8.23 17l4.43 18.54 5.38-1.11L14.01 17H8.23M12.62 10.88l-1.33 1.55L8.57 16h5.21l-1.16-5.12M31.95 10H13.47l1.32 6h15.85l1.31-6M36.92 16l-3.06-3.96-1.03-1.34-1.18 5.3h5.27M27.41 34.5l5.38.98L37.22 17h-5.8l-4.01 17.5"/><path class="a" d="M45 4a4 4 0 0 0-4-4H4a4 4 0 0 0-4 4v37a4 4 0 0 0 4 4h37a4 4 0 0 0 4-4V4zM33.63 36l-.57.39-6.34-1.2-.39-.53L30.41 17H15l4.09 17.71-.39.46-6.31 1.23-.58-.4-4.73-19.84.1-.43 3.34-4 2-2.5.36-.23h19.76l.36.19 1.61 2.05 3.64 4.49.1.43z"/></svg>
