<?xml version="1.0" encoding="utf-8"?>
<!-- Generator: Adobe Illustrator 19.2.0, SVG Export Plug-In . SVG Version: 6.00 Build 0)  -->
<svg version="1.1" id="Layer_1" xmlns="http://www.w3.org/2000/svg" xmlns:xlink="http://www.w3.org/1999/xlink" x="0px" y="0px"
	 viewBox="0 0 708 346" style="enable-background:new 0 0 708 346;" xml:space="preserve">
<style type="text/css">
	.st0{fill:#CCE5FF;}
	.st1{fill:#3399FF;}
	.st2{enable-background:new    ;}
	.st3{fill:#004C99;}
	.st4{fill:#007FFF;}
	.st5{fill:#FFFFFF;}
	.st6{fill:#FF9999;}
	.st7{fill:#CC0000;}
</style>
<g>
	<ellipse pointer-events="none" class="st0" cx="137.5" cy="29.5" rx="27.8" ry="27.8"/>
	<path class="st1" d="M137.5,57.8c-15.6,0-28.3-12.7-28.3-28.3s12.7-28.3,28.3-28.3s28.3,12.7,28.3,28.3S153.1,57.8,137.5,57.8z
		 M137.5,2.2c-15,0-27.3,12.2-27.3,27.3s12.2,27.3,27.3,27.3s27.3-12.2,27.3-27.3S152.5,2.2,137.5,2.2z"/>
</g>
<g transform="translate(127.5,22.5)">
	<g class="st2">
		<path class="st3" d="M5.7,10.5V9.7h0c-0.2,0.3-0.5,0.5-0.8,0.7s-0.7,0.2-1.1,0.2c-0.4,0-0.8-0.1-1.2-0.3S1.8,10,1.6,9.7
			S1.2,9.1,1,8.7C0.9,8.3,0.8,7.9,0.8,7.5S0.9,6.7,1,6.3s0.3-0.7,0.6-1s0.5-0.5,0.9-0.7c0.3-0.2,0.7-0.3,1.2-0.3
			c0.4,0,0.8,0.1,1.1,0.3C5.1,4.8,5.3,5,5.5,5.2h0V1.4h2v9.1H5.7z M5.6,7.5c0-0.2,0-0.4-0.1-0.6C5.4,6.8,5.3,6.6,5.2,6.4
			C5.1,6.3,4.9,6.2,4.8,6.1C4.6,6,4.4,6,4.2,6C3.9,6,3.7,6,3.5,6.1C3.4,6.2,3.2,6.3,3.1,6.4C3,6.6,2.9,6.7,2.8,6.9
			C2.8,7.1,2.7,7.3,2.7,7.5c0,0.2,0,0.4,0.1,0.6C2.9,8.2,3,8.4,3.1,8.6c0.1,0.1,0.3,0.3,0.4,0.3C3.7,9,3.9,9,4.2,9
			c0.2,0,0.4,0,0.6-0.1s0.3-0.2,0.5-0.3c0.1-0.1,0.2-0.3,0.3-0.5C5.6,7.9,5.6,7.7,5.6,7.5z"/>
		<path class="st3" d="M11.2,2.6c0,0.2,0,0.3-0.1,0.4s-0.1,0.2-0.2,0.3c-0.1,0.1-0.2,0.2-0.4,0.2c-0.1,0.1-0.3,0.1-0.4,0.1
			c-0.3,0-0.6-0.1-0.8-0.3C9,3.2,8.9,2.9,8.9,2.6c0-0.1,0-0.3,0.1-0.4S9.1,2,9.2,1.9c0.1-0.1,0.2-0.2,0.4-0.2
			C9.7,1.6,9.9,1.5,10,1.5c0.2,0,0.3,0,0.4,0.1s0.3,0.1,0.4,0.2c0.1,0.1,0.2,0.2,0.2,0.3C11.1,2.3,11.2,2.5,11.2,2.6z M9.1,10.5v-6
			h2v6H9.1z"/>
		<path class="st3" d="M16.3,10.5h-2.1l-2.4-6H14l1.3,3.9h0l1.3-3.9h2.1L16.3,10.5z"/>
	</g>
</g>
<g>
	<ellipse pointer-events="none" class="st0" cx="29.5" cy="125.5" rx="27.8" ry="27.8"/>
	<path class="st1" d="M29.5,153.8c-15.6,0-28.3-12.7-28.3-28.3s12.7-28.3,28.3-28.3s28.3,12.7,28.3,28.3S45.1,153.8,29.5,153.8z
		 M29.5,98.2c-15,0-27.3,12.2-27.3,27.3s12.2,27.3,27.3,27.3s27.3-12.2,27.3-27.3S44.5,98.2,29.5,98.2z"/>
</g>
<g transform="translate(9.5,118.5)">
	<g class="st2">
		<path class="st3" d="M7.5,7.5c0,0.4-0.1,0.8-0.2,1.2C7.2,9.1,7,9.4,6.7,9.7c-0.2,0.3-0.5,0.5-0.9,0.7c-0.4,0.2-0.8,0.3-1.2,0.3
			c-0.4,0-0.8-0.1-1.1-0.2C3.1,10.3,2.9,10,2.7,9.7h0v0.8H0.8V1.4h2v3.7h0C3,5,3.2,4.8,3.5,4.6c0.3-0.2,0.7-0.3,1.1-0.3
			c0.4,0,0.8,0.1,1.2,0.3C6.2,4.8,6.5,5,6.7,5.3s0.4,0.6,0.6,1S7.5,7.1,7.5,7.5z M5.6,7.5c0-0.2,0-0.4-0.1-0.6
			C5.4,6.7,5.3,6.6,5.2,6.4C5.1,6.3,5,6.2,4.8,6.1C4.6,6,4.4,6,4.2,6C3.9,6,3.7,6,3.6,6.1C3.4,6.2,3.2,6.3,3.1,6.4
			C3,6.6,2.9,6.8,2.8,6.9C2.8,7.1,2.7,7.3,2.7,7.5s0,0.4,0.1,0.6C2.9,8.2,3,8.4,3.1,8.6c0.1,0.1,0.3,0.3,0.5,0.3C3.7,9,3.9,9,4.2,9
			c0.2,0,0.4,0,0.6-0.1C5,8.8,5.1,8.7,5.2,8.6c0.1-0.1,0.2-0.3,0.3-0.5C5.6,7.9,5.6,7.7,5.6,7.5z"/>
		<path class="st3" d="M12.7,10.5V9.7h0c-0.1,0.1-0.2,0.3-0.3,0.4c-0.1,0.1-0.3,0.2-0.4,0.3c-0.2,0.1-0.3,0.2-0.5,0.2
			s-0.4,0.1-0.6,0.1c-0.4,0-0.7-0.1-1-0.2c-0.3-0.1-0.5-0.3-0.7-0.6C9,9.7,8.9,9.4,8.8,9.1C8.7,8.8,8.7,8.5,8.7,8.2V4.5h2v3.2
			c0,0.2,0,0.3,0,0.5s0.1,0.3,0.1,0.4s0.2,0.2,0.3,0.3C11.2,9,11.4,9,11.5,9c0.3,0,0.6-0.1,0.8-0.4c0.2-0.3,0.3-0.6,0.3-0.9V4.5h2v6
			H12.7z"/>
		<path class="st3" d="M18.2,6v2.3c0,0.3,0.1,0.5,0.2,0.6s0.3,0.2,0.6,0.2c0.1,0,0.2,0,0.3,0c0.1,0,0.2,0,0.3-0.1l0,1.4
			c-0.1,0-0.3,0.1-0.5,0.1s-0.4,0.1-0.6,0.1c-0.4,0-0.7,0-1-0.2c-0.3-0.1-0.5-0.2-0.7-0.4s-0.3-0.4-0.4-0.7
			c-0.1-0.3-0.1-0.6-0.1-0.9V6h-1V4.5h0.9V3h1.9v1.6h1.4V6H18.2z"/>
		<path class="st3" d="M22.4,6v2.3c0,0.3,0.1,0.5,0.2,0.6s0.3,0.2,0.6,0.2c0.1,0,0.2,0,0.3,0c0.1,0,0.2,0,0.3-0.1l0,1.4
			c-0.1,0-0.3,0.1-0.5,0.1c-0.2,0-0.4,0.1-0.6,0.1c-0.4,0-0.7,0-1-0.2c-0.3-0.1-0.5-0.2-0.7-0.4s-0.3-0.4-0.4-0.7
			c-0.1-0.3-0.1-0.6-0.1-0.9V6h-1V4.5h0.9V3h1.9v1.6h1.4V6H22.4z"/>
		<path class="st3" d="M31.1,7.5c0,0.5-0.1,0.9-0.3,1.3c-0.2,0.4-0.4,0.7-0.7,1c-0.3,0.3-0.7,0.5-1.1,0.6c-0.4,0.2-0.8,0.2-1.3,0.2
			c-0.4,0-0.9-0.1-1.3-0.2c-0.4-0.2-0.8-0.4-1.1-0.6c-0.3-0.3-0.5-0.6-0.7-1c-0.2-0.4-0.3-0.8-0.3-1.3c0-0.5,0.1-0.9,0.3-1.3
			c0.2-0.4,0.4-0.7,0.7-1c0.3-0.3,0.7-0.5,1.1-0.6c0.4-0.1,0.8-0.2,1.3-0.2c0.5,0,0.9,0.1,1.3,0.2c0.4,0.1,0.8,0.4,1.1,0.6
			c0.3,0.3,0.5,0.6,0.7,1C31,6.6,31.1,7,31.1,7.5z M29.2,7.5c0-0.2,0-0.4-0.1-0.6c-0.1-0.2-0.2-0.3-0.3-0.5
			c-0.1-0.1-0.3-0.3-0.4-0.3C28.2,6,28,6,27.8,6c-0.2,0-0.4,0-0.6,0.1c-0.2,0.1-0.3,0.2-0.4,0.3c-0.1,0.1-0.2,0.3-0.3,0.5
			c-0.1,0.2-0.1,0.4-0.1,0.6c0,0.2,0,0.4,0.1,0.6c0.1,0.2,0.2,0.4,0.3,0.5c0.1,0.1,0.3,0.3,0.4,0.4S27.5,9,27.8,9s0.4,0,0.6-0.1
			c0.2-0.1,0.3-0.2,0.4-0.4c0.1-0.1,0.2-0.3,0.3-0.5C29.1,7.9,29.2,7.7,29.2,7.5z"/>
		<path class="st3" d="M36.2,10.5V7.2c0-0.2,0-0.3,0-0.5c0-0.2-0.1-0.3-0.1-0.4c-0.1-0.1-0.2-0.2-0.3-0.3C35.7,6,35.5,6,35.4,6
			S35,6,34.9,6.1s-0.2,0.2-0.3,0.3s-0.2,0.3-0.2,0.4c0,0.2-0.1,0.3-0.1,0.5v3.2h-2v-6h1.9v0.8h0c0.1-0.1,0.2-0.3,0.3-0.4
			c0.1-0.1,0.3-0.2,0.4-0.3c0.2-0.1,0.3-0.2,0.5-0.2c0.2-0.1,0.4-0.1,0.6-0.1c0.4,0,0.7,0.1,1,0.2c0.3,0.1,0.5,0.3,0.7,0.6
			c0.2,0.2,0.3,0.5,0.4,0.8s0.1,0.6,0.1,0.9v3.7H36.2z"/>
	</g>
</g>
<g>
	<rect x="44.1" y="74.8" transform="matrix(0.7442 -0.668 0.668 0.7442 -28.4315 76.414)" class="st4" width="82.9" height="1"/>
</g>
<g>
	<path pointer-events="none" class="st4" d="M50.8,106.5l2.9-7.3l1,3.8l3.6,1.4L50.8,106.5z"/>
	<path class="st4" d="M50,107.2l3.8-9.6l1.4,5l4.8,1.9L50,107.2z M53.6,100.8l-2,5l5.1-1.4l-2.5-1L53.6,100.8z"/>
</g>
<g>
	<ellipse pointer-events="none" class="st5" cx="29.5" cy="261.5" rx="27.8" ry="27.8"/>
	<path class="st1" d="M29.8,289.8l0-1c1,0,2-0.1,2.9-0.2l0.1,1C31.8,289.7,30.8,289.7,29.8,289.8z M26.7,289.6c-1-0.1-2-0.3-3-0.5
		l0.2-1c1,0.2,1.9,0.3,2.9,0.4L26.7,289.6z M35.8,289l-0.2-1c1-0.2,1.9-0.5,2.8-0.8l0.3,0.9C37.8,288.5,36.8,288.8,35.8,289z
		 M20.8,288.4c-1-0.3-1.9-0.7-2.8-1.1l0.4-0.9c0.9,0.4,1.8,0.8,2.7,1.1L20.8,288.4z M41.6,287.1l-0.4-0.9c0.9-0.4,1.8-0.9,2.6-1.4
		l0.5,0.9C43.4,286.1,42.5,286.6,41.6,287.1z M15.2,285.9c-0.9-0.5-1.7-1.1-2.5-1.7l0.6-0.8c0.8,0.6,1.6,1.1,2.5,1.6L15.2,285.9z
		 M46.8,283.9l-0.6-0.8c0.8-0.6,1.5-1.2,2.2-1.9l0.7,0.7C48.4,282.6,47.6,283.2,46.8,283.9z M10.3,282.2c-0.7-0.7-1.5-1.4-2.1-2.2
		l0.8-0.7c0.6,0.7,1.3,1.4,2.1,2.1L10.3,282.2z M51.2,279.6l-0.8-0.6c0.6-0.8,1.2-1.5,1.8-2.4l0.8,0.6
		C52.5,278,51.8,278.9,51.2,279.6z M6.3,277.7c-0.6-0.8-1.1-1.7-1.6-2.6l0.9-0.5c0.5,0.9,1,1.7,1.6,2.5L6.3,277.7z M54.6,274.6
		l-0.9-0.5c0.5-0.9,0.9-1.8,1.2-2.7l0.9,0.4C55.5,272.8,55,273.7,54.6,274.6z M3.4,272.3c-0.4-0.9-0.7-1.9-1-2.9l1-0.3
		c0.3,0.9,0.6,1.9,1,2.8L3.4,272.3z M56.8,268.9l-1-0.3c0.3-0.9,0.5-1.9,0.6-2.9l1,0.2C57.3,266.9,57.1,267.9,56.8,268.9z
		 M1.7,266.5c-0.2-1-0.3-2-0.4-3l1-0.1c0.1,1,0.2,2,0.4,2.9L1.7,266.5z M57.8,262.9l-1,0c0-0.4,0-0.9,0-1.3c0-0.5,0-1.1,0-1.6l1-0.1
		c0,0.6,0,1.1,0,1.7C57.8,262,57.8,262.4,57.8,262.9z M2.2,260.4l-1,0c0-1,0.1-2,0.3-3l1,0.1C2.4,258.5,2.3,259.4,2.2,260.4z
		 M56.4,257c-0.2-1-0.4-1.9-0.6-2.9l1-0.3c0.3,1,0.5,2,0.7,3L56.4,257z M3.1,254.6l-1-0.3c0.3-1,0.6-2,0.9-2.9l0.9,0.4
		C3.6,252.7,3.3,253.7,3.1,254.6z M54.8,251.3c-0.4-0.9-0.8-1.8-1.2-2.7l0.9-0.5c0.5,0.9,0.9,1.8,1.3,2.8L54.8,251.3z M5.2,249.1
		l-0.9-0.5c0.5-0.9,1-1.8,1.5-2.6l0.8,0.5C6.1,247.4,5.6,248.2,5.2,249.1z M52,246.1c-0.6-0.8-1.2-1.6-1.8-2.3l0.8-0.7
		c0.7,0.8,1.3,1.6,1.9,2.4L52,246.1z M8.4,244.2l-0.8-0.6c0.6-0.8,1.3-1.5,2.1-2.2l0.7,0.7C9.7,242.7,9,243.4,8.4,244.2z
		 M48.2,241.7c-0.7-0.7-1.5-1.3-2.2-1.9l0.6-0.8c0.8,0.6,1.6,1.3,2.3,2L48.2,241.7z M12.6,240.1l-0.6-0.8c0.8-0.6,1.6-1.2,2.5-1.8
		l0.5,0.8C14.2,238.9,13.4,239.5,12.6,240.1z M43.5,238.1c-0.8-0.5-1.7-1-2.6-1.4l0.4-0.9c0.9,0.4,1.8,0.9,2.7,1.4L43.5,238.1z
		 M17.6,237l-0.4-0.9c0.9-0.4,1.9-0.8,2.8-1.2l0.3,0.9C19.4,236.2,18.5,236.5,17.6,237z M38.2,235.7c-0.9-0.3-1.9-0.6-2.8-0.8l0.2-1
		c1,0.2,2,0.5,2.9,0.8L38.2,235.7z M23.1,235l-0.2-1c1-0.2,2-0.4,3-0.5l0.1,1C25.1,234.6,24.1,234.8,23.1,235z M32.4,234.4
		c-1-0.1-2-0.2-3-0.2c-0.1,0-0.3,0-0.4,0l0-1c0.2,0,0.4,0,0.6,0c1,0,2,0.1,3,0.2L32.4,234.4z"/>
</g>
<g transform="translate(24.5,254.5)">
	<g class="st2">
		<path class="st3" d="M4.9,8.5h2.7v0.7H4.9v2.7H4.1V9.2H1.4V8.5h2.7V5.8h0.7V8.5z"/>
	</g>
</g>
<g>
	<rect x="28.8" y="153.5" class="st4" width="1" height="74.1"/>
</g>
<g>
	<path pointer-events="none" class="st4" d="M29.3,232.9l-3.5-7l3.5,1.8l3.5-1.8L29.3,232.9z"/>
	<path class="st4" d="M29.3,234l-4.6-9.2l4.6,2.3l4.6-2.3L29.3,234z M26.9,227l2.4,4.8l2.4-4.8l-2.4,1.2L26.9,227z"/>
</g>
<g>
	<ellipse pointer-events="none" class="st0" cx="137.5" cy="125.5" rx="27.8" ry="27.8"/>
	<path class="st1" d="M137.5,153.8c-15.6,0-28.3-12.7-28.3-28.3s12.7-28.3,28.3-28.3s28.3,12.7,28.3,28.3S153.1,153.8,137.5,153.8z
		 M137.5,98.2c-15,0-27.3,12.2-27.3,27.3s12.2,27.3,27.3,27.3s27.3-12.2,27.3-27.3S152.5,98.2,137.5,98.2z"/>
</g>
<g transform="translate(122.5,118.5)">
	<g class="st2">
		<path class="st3" d="M4.9,6.3C4.8,6.1,4.6,6,4.4,5.9C4.1,5.8,3.9,5.7,3.7,5.7c-0.2,0-0.4,0-0.5,0.1C3,5.9,2.9,6.1,2.9,6.2
			c0,0.2,0.1,0.3,0.3,0.4C3.4,6.7,3.6,6.7,4,6.8c0.2,0,0.5,0.1,0.7,0.2s0.4,0.2,0.6,0.3c0.2,0.1,0.3,0.3,0.4,0.5
			c0.1,0.2,0.2,0.5,0.2,0.7c0,0.4-0.1,0.7-0.2,1c-0.2,0.3-0.4,0.5-0.6,0.6c-0.2,0.2-0.5,0.3-0.8,0.3s-0.6,0.1-0.9,0.1
			c-0.5,0-1-0.1-1.4-0.2c-0.5-0.2-0.9-0.4-1.2-0.7l1.1-1.2C2,8.8,2.3,9,2.5,9.1C2.8,9.2,3,9.3,3.3,9.3c0.2,0,0.3,0,0.5-0.1
			C4,9.1,4,9,4,8.8c0-0.2-0.1-0.3-0.3-0.4C3.6,8.3,3.3,8.2,2.9,8.1C2.6,8,2.4,8,2.2,7.9C2,7.8,1.8,7.7,1.7,7.6
			C1.5,7.4,1.4,7.3,1.3,7.1C1.2,6.9,1.1,6.6,1.1,6.3c0-0.4,0.1-0.7,0.2-0.9S1.7,5,1.9,4.8c0.2-0.2,0.5-0.3,0.8-0.4
			C3,4.4,3.3,4.3,3.6,4.3c0.4,0,0.9,0.1,1.3,0.2C5.3,4.7,5.7,4.9,6,5.2L4.9,6.3z"/>
		<path class="st3" d="M13.7,7.5c0,0.4-0.1,0.8-0.2,1.2c-0.1,0.4-0.3,0.7-0.6,1s-0.5,0.5-0.9,0.7s-0.8,0.3-1.2,0.3
			c-0.4,0-0.7-0.1-1-0.2c-0.3-0.1-0.6-0.4-0.8-0.6h0v3.5h-2V4.5h1.9v0.7h0C9.2,5,9.4,4.8,9.7,4.6s0.7-0.3,1.1-0.3
			c0.4,0,0.8,0.1,1.2,0.3S12.7,5,13,5.3s0.4,0.6,0.6,1C13.6,6.7,13.7,7.1,13.7,7.5z M11.8,7.5c0-0.2,0-0.4-0.1-0.6
			c-0.1-0.2-0.1-0.3-0.3-0.5c-0.1-0.1-0.3-0.3-0.4-0.3C10.8,6,10.6,6,10.4,6C10.2,6,10,6,9.8,6.1C9.6,6.2,9.5,6.3,9.4,6.4
			C9.2,6.6,9.1,6.8,9.1,6.9C9,7.1,9,7.3,9,7.5s0,0.4,0.1,0.6c0.1,0.2,0.2,0.3,0.3,0.5c0.1,0.1,0.3,0.3,0.4,0.3S10.2,9,10.4,9
			c0.2,0,0.4,0,0.6-0.1c0.2-0.1,0.3-0.2,0.4-0.3c0.1-0.1,0.2-0.3,0.3-0.5C11.8,7.9,11.8,7.7,11.8,7.5z"/>
		<path class="st3" d="M14.9,5.3c0.4-0.3,0.8-0.6,1.2-0.8c0.5-0.2,0.9-0.3,1.4-0.3c0.5,0,0.9,0.1,1.3,0.2c0.3,0.1,0.6,0.3,0.8,0.6
			c0.2,0.3,0.4,0.6,0.5,1c0.1,0.4,0.2,0.9,0.2,1.4v3h-1.8V9.9h0c-0.2,0.2-0.4,0.4-0.7,0.6c-0.3,0.1-0.6,0.2-1,0.2
			c-0.2,0-0.5,0-0.7-0.1c-0.3-0.1-0.5-0.2-0.7-0.3c-0.2-0.1-0.4-0.3-0.5-0.6c-0.1-0.2-0.2-0.5-0.2-0.9c0-0.4,0.1-0.8,0.4-1
			c0.2-0.3,0.5-0.5,0.9-0.6c0.4-0.1,0.8-0.2,1.2-0.3c0.5,0,0.9-0.1,1.3-0.1V6.7c0-0.3-0.1-0.5-0.3-0.7c-0.2-0.1-0.5-0.2-0.8-0.2
			c-0.3,0-0.5,0.1-0.8,0.2c-0.3,0.1-0.5,0.3-0.7,0.4L14.9,5.3z M18.5,7.9h-0.3c-0.2,0-0.4,0-0.7,0C17.4,7.9,17.2,8,17,8
			c-0.2,0.1-0.3,0.1-0.4,0.2c-0.1,0.1-0.2,0.2-0.2,0.4c0,0.1,0,0.2,0.1,0.3c0.1,0.1,0.1,0.1,0.2,0.2c0.1,0,0.2,0.1,0.3,0.1
			c0.1,0,0.2,0,0.3,0c0.4,0,0.7-0.1,0.9-0.3s0.3-0.5,0.3-0.9V7.9z"/>
		<path class="st3" d="M25.7,10.5V7.2c0-0.2,0-0.3,0-0.5c0-0.2-0.1-0.3-0.1-0.4c-0.1-0.1-0.2-0.2-0.3-0.3C25.1,6,25,6,24.8,6
			s-0.3,0-0.5,0.1S24.1,6.2,24,6.4s-0.2,0.3-0.2,0.4c0,0.2-0.1,0.3-0.1,0.5v3.2h-2v-6h1.9v0.8h0C23.7,5.2,23.8,5.1,24,5
			c0.1-0.1,0.3-0.2,0.4-0.3c0.2-0.1,0.3-0.2,0.5-0.2c0.2-0.1,0.4-0.1,0.6-0.1c0.4,0,0.7,0.1,1,0.2c0.3,0.1,0.5,0.3,0.7,0.6
			c0.2,0.2,0.3,0.5,0.4,0.8s0.1,0.6,0.1,0.9v3.7H25.7z"/>
	</g>
</g>
<g>
	<rect x="136.7" y="57" class="st4" width="1" height="34.7"/>
</g>
<g>
	<path pointer-events="none" class="st4" d="M137.2,96.9l-3.5-7l3.5,1.8l3.5-1.8L137.2,96.9z"/>
	<path class="st4" d="M137.2,98l-4.6-9.2l4.6,2.3l4.6-2.3L137.2,98z M134.8,91l2.4,4.8l2.4-4.8l-2.4,1.2L134.8,91z"/>
</g>
<g>
	<ellipse pointer-events="none" class="st5" cx="137.5" cy="261.5" rx="27.8" ry="27.8"/>
	<path class="st1" d="M137.8,289.8l0-1c1,0,2-0.1,2.9-0.2l0.1,1C139.8,289.7,138.8,289.7,137.8,289.8z M134.7,289.6
		c-1-0.1-2-0.3-3-0.5l0.2-1c1,0.2,1.9,0.3,2.9,0.4L134.7,289.6z M143.8,289l-0.2-1c1-0.2,1.9-0.5,2.8-0.8l0.3,0.9
		C145.8,288.5,144.8,288.8,143.8,289z M128.8,288.4c-1-0.3-1.9-0.7-2.8-1.1l0.4-0.9c0.9,0.4,1.8,0.8,2.7,1.1L128.8,288.4z
		 M149.6,287.1l-0.4-0.9c0.9-0.4,1.8-0.9,2.6-1.4l0.5,0.9C151.4,286.1,150.5,286.6,149.6,287.1z M123.2,285.9
		c-0.9-0.5-1.7-1.1-2.5-1.7l0.6-0.8c0.8,0.6,1.6,1.1,2.5,1.6L123.2,285.9z M154.8,283.9l-0.6-0.8c0.8-0.6,1.5-1.2,2.2-1.9l0.7,0.7
		C156.4,282.6,155.6,283.2,154.8,283.9z M118.3,282.2c-0.7-0.7-1.5-1.4-2.1-2.2l0.8-0.7c0.6,0.7,1.3,1.4,2.1,2.1L118.3,282.2z
		 M159.2,279.6l-0.8-0.6c0.6-0.8,1.2-1.5,1.8-2.4l0.8,0.6C160.5,278,159.8,278.9,159.2,279.6z M114.3,277.7
		c-0.6-0.8-1.1-1.7-1.6-2.6l0.9-0.5c0.5,0.9,1,1.7,1.6,2.5L114.3,277.7z M162.6,274.6l-0.9-0.5c0.5-0.9,0.9-1.8,1.2-2.7l0.9,0.4
		C163.5,272.8,163,273.7,162.6,274.6z M111.4,272.3c-0.4-0.9-0.7-1.9-1-2.9l1-0.3c0.3,0.9,0.6,1.9,1,2.8L111.4,272.3z M164.8,268.9
		l-1-0.3c0.3-0.9,0.5-1.9,0.6-2.9l1,0.2C165.3,266.9,165.1,267.9,164.8,268.9z M109.7,266.5c-0.2-1-0.3-2-0.4-3l1-0.1
		c0.1,1,0.2,2,0.4,2.9L109.7,266.5z M165.8,262.9l-1,0c0-0.4,0-0.9,0-1.3c0-0.5,0-1.1,0-1.6l1-0.1c0,0.6,0,1.1,0,1.7
		C165.8,262,165.8,262.4,165.8,262.9z M110.2,260.4l-1,0c0-1,0.1-2,0.3-3l1,0.1C110.4,258.5,110.3,259.4,110.2,260.4z M164.4,257
		c-0.2-1-0.4-1.9-0.6-2.9l1-0.3c0.3,1,0.5,2,0.7,3L164.4,257z M111.1,254.6l-1-0.3c0.3-1,0.6-2,0.9-2.9l0.9,0.4
		C111.6,252.7,111.3,253.7,111.1,254.6z M162.8,251.3c-0.4-0.9-0.8-1.8-1.2-2.7l0.9-0.5c0.5,0.9,0.9,1.8,1.3,2.8L162.8,251.3z
		 M113.2,249.1l-0.9-0.5c0.5-0.9,1-1.8,1.5-2.6l0.8,0.5C114.1,247.4,113.6,248.2,113.2,249.1z M160,246.1c-0.6-0.8-1.2-1.6-1.8-2.3
		l0.8-0.7c0.7,0.8,1.3,1.6,1.9,2.4L160,246.1z M116.4,244.2l-0.8-0.6c0.6-0.8,1.3-1.5,2.1-2.2l0.7,0.7
		C117.7,242.7,117,243.4,116.4,244.2z M156.2,241.7c-0.7-0.7-1.5-1.3-2.2-1.9l0.6-0.8c0.8,0.6,1.6,1.3,2.3,2L156.2,241.7z
		 M120.6,240.1l-0.6-0.8c0.8-0.6,1.6-1.2,2.5-1.8l0.5,0.8C122.2,238.9,121.4,239.5,120.6,240.1z M151.5,238.1
		c-0.8-0.5-1.7-1-2.6-1.4l0.4-0.9c0.9,0.4,1.8,0.9,2.7,1.4L151.5,238.1z M125.6,237l-0.4-0.9c0.9-0.4,1.9-0.8,2.8-1.2l0.3,0.9
		C127.4,236.2,126.5,236.5,125.6,237z M146.2,235.7c-0.9-0.3-1.9-0.6-2.8-0.8l0.2-1c1,0.2,2,0.5,2.9,0.8L146.2,235.7z M131.1,235
		l-0.2-1c1-0.2,2-0.4,3-0.5l0.1,1C133.1,234.6,132.1,234.8,131.1,235z M140.4,234.4c-1-0.1-2-0.2-3-0.2c-0.1,0-0.3,0-0.4,0l0-1
		c0.2,0,0.4,0,0.6,0c1,0,2,0.1,3,0.2L140.4,234.4z"/>
</g>
<g transform="translate(133.5,254.5)">
	<g class="st2">
		<path class="st3" d="M3.5,3.8c0.5,0,1,0.1,1.3,0.4c0.4,0.3,0.6,0.6,0.9,1C5.9,5.6,6,6.1,6.1,6.6s0.1,1.1,0.1,1.6
			c0,0.6,0,1.1-0.1,1.6c-0.1,0.5-0.2,1-0.5,1.4c-0.2,0.4-0.5,0.8-0.9,1c-0.4,0.3-0.8,0.4-1.3,0.4c-0.5,0-1-0.1-1.3-0.4
			c-0.4-0.3-0.6-0.6-0.9-1s-0.4-0.9-0.5-1.4C0.8,9.4,0.7,8.8,0.7,8.3c0-0.6,0-1.1,0.1-1.6s0.2-1,0.5-1.4s0.5-0.8,0.9-1
			C2.5,3.9,3,3.8,3.5,3.8z M3.5,4.5c-0.4,0-0.7,0.1-0.9,0.3C2.3,5.1,2.1,5.4,2,5.8C1.8,6.1,1.7,6.5,1.7,7S1.6,7.8,1.6,8.3
			c0,0.4,0,0.9,0.1,1.3C1.7,10,1.8,10.4,2,10.8c0.1,0.4,0.3,0.6,0.6,0.9C2.8,11.9,3.1,12,3.5,12c0.4,0,0.7-0.1,0.9-0.3
			c0.2-0.2,0.4-0.5,0.6-0.9c0.1-0.4,0.2-0.8,0.3-1.2c0.1-0.4,0.1-0.9,0.1-1.3c0-0.4,0-0.9-0.1-1.3C5.3,6.5,5.2,6.1,5,5.8
			C4.9,5.4,4.7,5.1,4.4,4.9C4.2,4.6,3.9,4.5,3.5,4.5z"/>
	</g>
</g>
<g>
	<rect x="136.7" y="153.5" class="st4" width="1" height="74.1"/>
</g>
<g>
	<path pointer-events="none" class="st4" d="M137.2,232.9l-3.5-7l3.5,1.8l3.5-1.8L137.2,232.9z"/>
	<path class="st4" d="M137.2,234l-4.6-9.2l4.6,2.3l4.6-2.3L137.2,234z M134.8,227l2.4,4.8l2.4-4.8l-2.4,1.2L134.8,227z"/>
</g>
<g>
	<ellipse pointer-events="none" class="st0" cx="246.5" cy="125.5" rx="27.8" ry="27.8"/>
	<path class="st1" d="M246.5,153.8c-15.6,0-28.3-12.7-28.3-28.3s12.7-28.3,28.3-28.3s28.3,12.7,28.3,28.3S262.1,153.8,246.5,153.8z
		 M246.5,98.2c-15,0-27.3,12.2-27.3,27.3s12.2,27.3,27.3,27.3s27.3-12.2,27.3-27.3S261.5,98.2,246.5,98.2z"/>
</g>
<g transform="translate(226.5,118.5)">
	<g class="st2">
		<path class="st3" d="M7.5,7.5c0,0.4-0.1,0.8-0.2,1.2C7.2,9.1,7,9.4,6.7,9.7c-0.2,0.3-0.5,0.5-0.9,0.7c-0.4,0.2-0.8,0.3-1.2,0.3
			c-0.4,0-0.8-0.1-1.1-0.2C3.1,10.3,2.9,10,2.7,9.7h0v0.8H0.8V1.4h2v3.7h0C3,5,3.2,4.8,3.5,4.6c0.3-0.2,0.7-0.3,1.1-0.3
			c0.4,0,0.8,0.1,1.2,0.3C6.2,4.8,6.5,5,6.7,5.3s0.4,0.6,0.6,1S7.5,7.1,7.5,7.5z M5.6,7.5c0-0.2,0-0.4-0.1-0.6
			C5.4,6.7,5.3,6.6,5.2,6.4C5.1,6.3,5,6.2,4.8,6.1C4.6,6,4.4,6,4.2,6C3.9,6,3.7,6,3.6,6.1C3.4,6.2,3.2,6.3,3.1,6.4
			C3,6.6,2.9,6.8,2.8,6.9C2.8,7.1,2.7,7.3,2.7,7.5s0,0.4,0.1,0.6C2.9,8.2,3,8.4,3.1,8.6c0.1,0.1,0.3,0.3,0.5,0.3C3.7,9,3.9,9,4.2,9
			c0.2,0,0.4,0,0.6-0.1C5,8.8,5.1,8.7,5.2,8.6c0.1-0.1,0.2-0.3,0.3-0.5C5.6,7.9,5.6,7.7,5.6,7.5z"/>
		<path class="st3" d="M12.7,10.5V9.7h0c-0.1,0.1-0.2,0.3-0.3,0.4c-0.1,0.1-0.3,0.2-0.4,0.3c-0.2,0.1-0.3,0.2-0.5,0.2
			s-0.4,0.1-0.6,0.1c-0.4,0-0.7-0.1-1-0.2c-0.3-0.1-0.5-0.3-0.7-0.6C9,9.7,8.9,9.4,8.8,9.1C8.7,8.8,8.7,8.5,8.7,8.2V4.5h2v3.2
			c0,0.2,0,0.3,0,0.5s0.1,0.3,0.1,0.4s0.2,0.2,0.3,0.3C11.2,9,11.4,9,11.5,9c0.3,0,0.6-0.1,0.8-0.4c0.2-0.3,0.3-0.6,0.3-0.9V4.5h2v6
			H12.7z"/>
		<path class="st3" d="M18.2,6v2.3c0,0.3,0.1,0.5,0.2,0.6s0.3,0.2,0.6,0.2c0.1,0,0.2,0,0.3,0c0.1,0,0.2,0,0.3-0.1l0,1.4
			c-0.1,0-0.3,0.1-0.5,0.1s-0.4,0.1-0.6,0.1c-0.4,0-0.7,0-1-0.2c-0.3-0.1-0.5-0.2-0.7-0.4s-0.3-0.4-0.4-0.7
			c-0.1-0.3-0.1-0.6-0.1-0.9V6h-1V4.5h0.9V3h1.9v1.6h1.4V6H18.2z"/>
		<path class="st3" d="M22.4,6v2.3c0,0.3,0.1,0.5,0.2,0.6s0.3,0.2,0.6,0.2c0.1,0,0.2,0,0.3,0c0.1,0,0.2,0,0.3-0.1l0,1.4
			c-0.1,0-0.3,0.1-0.5,0.1c-0.2,0-0.4,0.1-0.6,0.1c-0.4,0-0.7,0-1-0.2c-0.3-0.1-0.5-0.2-0.7-0.4s-0.3-0.4-0.4-0.7
			c-0.1-0.3-0.1-0.6-0.1-0.9V6h-1V4.5h0.9V3h1.9v1.6h1.4V6H22.4z"/>
		<path class="st3" d="M31.1,7.5c0,0.5-0.1,0.9-0.3,1.3c-0.2,0.4-0.4,0.7-0.7,1c-0.3,0.3-0.7,0.5-1.1,0.6c-0.4,0.2-0.8,0.2-1.3,0.2
			c-0.4,0-0.9-0.1-1.3-0.2c-0.4-0.2-0.8-0.4-1.1-0.6c-0.3-0.3-0.5-0.6-0.7-1c-0.2-0.4-0.3-0.8-0.3-1.3c0-0.5,0.1-0.9,0.3-1.3
			c0.2-0.4,0.4-0.7,0.7-1c0.3-0.3,0.7-0.5,1.1-0.6c0.4-0.1,0.8-0.2,1.3-0.2c0.5,0,0.9,0.1,1.3,0.2c0.4,0.1,0.8,0.4,1.1,0.6
			c0.3,0.3,0.5,0.6,0.7,1C31,6.6,31.1,7,31.1,7.5z M29.2,7.5c0-0.2,0-0.4-0.1-0.6c-0.1-0.2-0.2-0.3-0.3-0.5
			c-0.1-0.1-0.3-0.3-0.4-0.3C28.2,6,28,6,27.8,6c-0.2,0-0.4,0-0.6,0.1c-0.2,0.1-0.3,0.2-0.4,0.3c-0.1,0.1-0.2,0.3-0.3,0.5
			c-0.1,0.2-0.1,0.4-0.1,0.6c0,0.2,0,0.4,0.1,0.6c0.1,0.2,0.2,0.4,0.3,0.5c0.1,0.1,0.3,0.3,0.4,0.4S27.5,9,27.8,9s0.4,0,0.6-0.1
			c0.2-0.1,0.3-0.2,0.4-0.4c0.1-0.1,0.2-0.3,0.3-0.5C29.1,7.9,29.2,7.7,29.2,7.5z"/>
		<path class="st3" d="M36.2,10.5V7.2c0-0.2,0-0.3,0-0.5c0-0.2-0.1-0.3-0.1-0.4c-0.1-0.1-0.2-0.2-0.3-0.3C35.7,6,35.5,6,35.4,6
			S35,6,34.9,6.1s-0.2,0.2-0.3,0.3s-0.2,0.3-0.2,0.4c0,0.2-0.1,0.3-0.1,0.5v3.2h-2v-6h1.9v0.8h0c0.1-0.1,0.2-0.3,0.3-0.4
			c0.1-0.1,0.3-0.2,0.4-0.3c0.2-0.1,0.3-0.2,0.5-0.2c0.2-0.1,0.4-0.1,0.6-0.1c0.4,0,0.7,0.1,1,0.2c0.3,0.1,0.5,0.3,0.7,0.6
			c0.2,0.2,0.3,0.5,0.4,0.8s0.1,0.6,0.1,0.9v3.7H36.2z"/>
	</g>
</g>
<g>
	<rect x="189" y="33.4" transform="matrix(0.6607 -0.7506 0.7506 0.6607 7.6715 167.8726)" class="st4" width="1" height="84.1"/>
</g>
<g>
	<path pointer-events="none" class="st4" d="M225,106.7l-7.6-2l3.6-1.5l1-3.8L225,106.7z"/>
	<path class="st4" d="M225.9,107.4l-10-2.6l4.8-1.9l1.3-5L225.9,107.4z M219,104.6l5.2,1.4l-2-4.9l-0.7,2.6L219,104.6z"/>
</g>
<g>
	<ellipse pointer-events="none" class="st5" cx="246.5" cy="261.5" rx="27.8" ry="27.8"/>
	<path class="st1" d="M246.8,289.8l0-1c1,0,2-0.1,2.9-0.2l0.1,1C248.8,289.7,247.8,289.7,246.8,289.8z M243.7,289.6
		c-1-0.1-2-0.3-3-0.5l0.2-1c1,0.2,1.9,0.3,2.9,0.4L243.7,289.6z M252.8,289l-0.2-1c1-0.2,1.9-0.5,2.8-0.8l0.3,0.9
		C254.8,288.5,253.8,288.8,252.8,289z M237.8,288.4c-1-0.3-1.9-0.7-2.8-1.1l0.4-0.9c0.9,0.4,1.8,0.8,2.7,1.1L237.8,288.4z
		 M258.6,287.1l-0.4-0.9c0.9-0.4,1.8-0.9,2.6-1.4l0.5,0.9C260.4,286.1,259.5,286.6,258.6,287.1z M232.2,285.9
		c-0.9-0.5-1.7-1.1-2.5-1.7l0.6-0.8c0.8,0.6,1.6,1.1,2.5,1.6L232.2,285.9z M263.8,283.9l-0.6-0.8c0.8-0.6,1.5-1.2,2.2-1.9l0.7,0.7
		C265.4,282.6,264.6,283.2,263.8,283.9z M227.3,282.2c-0.7-0.7-1.5-1.4-2.1-2.2l0.8-0.7c0.6,0.7,1.3,1.4,2.1,2.1L227.3,282.2z
		 M268.2,279.6l-0.8-0.6c0.6-0.8,1.2-1.5,1.8-2.4l0.8,0.6C269.5,278,268.8,278.9,268.2,279.6z M223.3,277.7
		c-0.6-0.8-1.1-1.7-1.6-2.6l0.9-0.5c0.5,0.9,1,1.7,1.6,2.5L223.3,277.7z M271.6,274.6l-0.9-0.5c0.5-0.9,0.9-1.8,1.2-2.7l0.9,0.4
		C272.5,272.8,272,273.7,271.6,274.6z M220.4,272.3c-0.4-0.9-0.7-1.9-1-2.9l1-0.3c0.3,0.9,0.6,1.9,1,2.8L220.4,272.3z M273.8,268.9
		l-1-0.3c0.3-0.9,0.5-1.9,0.6-2.9l1,0.2C274.3,266.9,274.1,267.9,273.8,268.9z M218.7,266.5c-0.2-1-0.3-2-0.4-3l1-0.1
		c0.1,1,0.2,2,0.4,2.9L218.7,266.5z M274.8,262.9l-1,0c0-0.4,0-0.9,0-1.3c0-0.5,0-1.1,0-1.6l1-0.1c0,0.6,0,1.1,0,1.7
		C274.8,262,274.8,262.4,274.8,262.9z M219.2,260.4l-1,0c0-1,0.1-2,0.3-3l1,0.1C219.4,258.5,219.3,259.4,219.2,260.4z M273.4,257
		c-0.2-1-0.4-1.9-0.6-2.9l1-0.3c0.3,1,0.5,2,0.7,3L273.4,257z M220.1,254.6l-1-0.3c0.3-1,0.6-2,0.9-2.9l0.9,0.4
		C220.6,252.7,220.3,253.7,220.1,254.6z M271.8,251.3c-0.4-0.9-0.8-1.8-1.2-2.7l0.9-0.5c0.5,0.9,0.9,1.8,1.3,2.8L271.8,251.3z
		 M222.2,249.1l-0.9-0.5c0.5-0.9,1-1.8,1.5-2.6l0.8,0.5C223.1,247.4,222.6,248.2,222.2,249.1z M269,246.1c-0.6-0.8-1.2-1.6-1.8-2.3
		l0.8-0.7c0.7,0.8,1.3,1.6,1.9,2.4L269,246.1z M225.4,244.2l-0.8-0.6c0.6-0.8,1.3-1.5,2.1-2.2l0.7,0.7
		C226.7,242.7,226,243.4,225.4,244.2z M265.2,241.7c-0.7-0.7-1.5-1.3-2.2-1.9l0.6-0.8c0.8,0.6,1.6,1.3,2.3,2L265.2,241.7z
		 M229.6,240.1l-0.6-0.8c0.8-0.6,1.6-1.2,2.5-1.8l0.5,0.8C231.2,238.9,230.4,239.5,229.6,240.1z M260.5,238.1
		c-0.8-0.5-1.7-1-2.6-1.4l0.4-0.9c0.9,0.4,1.8,0.9,2.7,1.4L260.5,238.1z M234.6,237l-0.4-0.9c0.9-0.4,1.9-0.8,2.8-1.2l0.3,0.9
		C236.4,236.2,235.5,236.5,234.6,237z M255.2,235.7c-0.9-0.3-1.9-0.6-2.8-0.8l0.2-1c1,0.2,2,0.5,2.9,0.8L255.2,235.7z M240.1,235
		l-0.2-1c1-0.2,2-0.4,3-0.5l0.1,1C242.1,234.6,241.1,234.8,240.1,235z M249.4,234.4c-1-0.1-2-0.2-3-0.2c-0.1,0-0.3,0-0.4,0l0-1
		c0.2,0,0.4,0,0.6,0c1,0,2,0.1,3,0.2L249.4,234.4z"/>
</g>
<g transform="translate(243.5,254.5)">
	<g class="st2">
		<path class="st3" d="M3.8,9.9H1.2V9.2h2.7V9.9z"/>
	</g>
</g>
<g>
	<rect x="246.2" y="153.5" class="st4" width="1" height="74.1"/>
</g>
<g>
	<path pointer-events="none" class="st4" d="M246.7,232.9l-3.5-7l3.5,1.8l3.5-1.8L246.7,232.9z"/>
	<path class="st4" d="M246.7,234l-4.6-9.2l4.6,2.3l4.6-2.3L246.7,234z M244.3,227l2.4,4.8l2.4-4.8l-2.4,1.2L244.3,227z"/>
</g>
<g>
	<ellipse pointer-events="none" class="st0" cx="569.5" cy="29.5" rx="27.8" ry="27.8"/>
	<path class="st1" d="M569.5,57.8c-15.6,0-28.3-12.7-28.3-28.3s12.7-28.3,28.3-28.3s28.3,12.7,28.3,28.3S585.1,57.8,569.5,57.8z
		 M569.5,2.2c-15,0-27.3,12.2-27.3,27.3s12.2,27.3,27.3,27.3s27.3-12.2,27.3-27.3S584.5,2.2,569.5,2.2z"/>
</g>
<g transform="translate(559.5,22.5)">
	<g class="st2">
		<path class="st3" d="M5.7,10.5V9.7h0c-0.2,0.3-0.5,0.5-0.8,0.7c-0.4,0.2-0.7,0.2-1.1,0.2c-0.4,0-0.8-0.1-1.2-0.3
			C2.1,10.2,1.8,10,1.6,9.7S1.2,9.1,1,8.7C0.9,8.3,0.8,7.9,0.8,7.5S0.9,6.7,1,6.3s0.3-0.7,0.6-1s0.5-0.5,0.9-0.7s0.7-0.3,1.2-0.3
			c0.4,0,0.8,0.1,1.1,0.3S5.3,5,5.5,5.2h0V1.4h2v9.1H5.7z M5.6,7.5c0-0.2,0-0.4-0.1-0.6C5.4,6.8,5.3,6.6,5.2,6.4
			C5.1,6.3,4.9,6.2,4.8,6.1C4.6,6,4.4,6,4.2,6C3.9,6,3.7,6,3.5,6.1C3.4,6.2,3.2,6.3,3.1,6.4C3,6.6,2.9,6.7,2.8,6.9
			C2.8,7.1,2.7,7.3,2.7,7.5c0,0.2,0,0.4,0.1,0.6C2.9,8.2,3,8.4,3.1,8.6c0.1,0.1,0.3,0.3,0.4,0.3S3.9,9,4.2,9c0.2,0,0.4,0,0.6-0.1
			s0.3-0.2,0.5-0.3c0.1-0.1,0.2-0.3,0.3-0.5C5.6,7.9,5.6,7.7,5.6,7.5z"/>
		<path class="st3" d="M11.2,2.6c0,0.2,0,0.3-0.1,0.4c-0.1,0.1-0.1,0.2-0.2,0.3c-0.1,0.1-0.2,0.2-0.4,0.2c-0.1,0.1-0.3,0.1-0.4,0.1
			c-0.3,0-0.6-0.1-0.8-0.3S8.9,2.9,8.9,2.6c0-0.1,0-0.3,0.1-0.4C9.1,2.1,9.1,2,9.2,1.9c0.1-0.1,0.2-0.2,0.4-0.2
			C9.7,1.6,9.9,1.5,10,1.5c0.2,0,0.3,0,0.4,0.1c0.1,0.1,0.3,0.1,0.4,0.2c0.1,0.1,0.2,0.2,0.2,0.3C11.1,2.3,11.2,2.5,11.2,2.6z
			 M9.1,10.5v-6h2v6H9.1z"/>
		<path class="st3" d="M16.3,10.5h-2.1l-2.4-6H14l1.3,3.9h0l1.3-3.9h2.1L16.3,10.5z"/>
	</g>
</g>
<g>
	<ellipse pointer-events="none" class="st0" cx="461.5" cy="125.5" rx="27.8" ry="27.8"/>
	<path class="st1" d="M461.5,153.8c-15.6,0-28.3-12.7-28.3-28.3s12.7-28.3,28.3-28.3s28.3,12.7,28.3,28.3S477.1,153.8,461.5,153.8z
		 M461.5,98.2c-15,0-27.3,12.2-27.3,27.3s12.2,27.3,27.3,27.3s27.3-12.2,27.3-27.3S476.5,98.2,461.5,98.2z"/>
</g>
<g transform="translate(441.5,118.5)">
	<g class="st2">
		<path class="st3" d="M7.5,7.5c0,0.4-0.1,0.8-0.2,1.2C7.2,9.1,7,9.4,6.7,9.7c-0.2,0.3-0.5,0.5-0.9,0.7c-0.4,0.2-0.8,0.3-1.2,0.3
			c-0.4,0-0.8-0.1-1.1-0.2C3.1,10.3,2.9,10,2.7,9.7h0v0.8H0.8V1.4h2v3.7h0C3,5,3.2,4.8,3.5,4.6s0.7-0.3,1.1-0.3
			c0.4,0,0.8,0.1,1.2,0.3S6.5,5,6.7,5.3s0.4,0.6,0.6,1S7.5,7.1,7.5,7.5z M5.6,7.5c0-0.2,0-0.4-0.1-0.6C5.4,6.7,5.3,6.6,5.2,6.4
			C5.1,6.3,5,6.2,4.8,6.1C4.6,6,4.4,6,4.2,6C3.9,6,3.7,6,3.6,6.1C3.4,6.2,3.2,6.3,3.1,6.4C3,6.6,2.9,6.8,2.8,6.9
			C2.8,7.1,2.7,7.3,2.7,7.5s0,0.4,0.1,0.6C2.9,8.2,3,8.4,3.1,8.6c0.1,0.1,0.3,0.3,0.5,0.3C3.7,9,3.9,9,4.2,9c0.2,0,0.4,0,0.6-0.1
			C5,8.8,5.1,8.7,5.2,8.6c0.1-0.1,0.2-0.3,0.3-0.5C5.6,7.9,5.6,7.7,5.6,7.5z"/>
		<path class="st3" d="M12.7,10.5V9.7h0c-0.1,0.1-0.2,0.3-0.3,0.4c-0.1,0.1-0.3,0.2-0.4,0.3s-0.3,0.2-0.5,0.2
			c-0.2,0.1-0.4,0.1-0.6,0.1c-0.4,0-0.7-0.1-1-0.2c-0.3-0.1-0.5-0.3-0.7-0.6C9,9.7,8.9,9.4,8.8,9.1S8.7,8.5,8.7,8.2V4.5h2v3.2
			c0,0.2,0,0.3,0,0.5c0,0.2,0.1,0.3,0.1,0.4c0.1,0.1,0.2,0.2,0.3,0.3C11.2,9,11.4,9,11.5,9c0.3,0,0.6-0.1,0.8-0.4s0.3-0.6,0.3-0.9
			V4.5h2v6H12.7z"/>
		<path class="st3" d="M18.2,6v2.3c0,0.3,0.1,0.5,0.2,0.6C18.5,9,18.7,9.1,19,9.1c0.1,0,0.2,0,0.3,0c0.1,0,0.2,0,0.3-0.1l0,1.4
			c-0.1,0-0.3,0.1-0.5,0.1s-0.4,0.1-0.6,0.1c-0.4,0-0.7,0-1-0.2c-0.3-0.1-0.5-0.2-0.7-0.4s-0.3-0.4-0.4-0.7s-0.1-0.6-0.1-0.9V6h-1
			V4.5h0.9V3h1.9v1.6h1.4V6H18.2z"/>
		<path class="st3" d="M22.4,6v2.3c0,0.3,0.1,0.5,0.2,0.6c0.1,0.1,0.3,0.2,0.6,0.2c0.1,0,0.2,0,0.3,0c0.1,0,0.2,0,0.3-0.1l0,1.4
			c-0.1,0-0.3,0.1-0.5,0.1c-0.2,0-0.4,0.1-0.6,0.1c-0.4,0-0.7,0-1-0.2c-0.3-0.1-0.5-0.2-0.7-0.4s-0.3-0.4-0.4-0.7
			c-0.1-0.3-0.1-0.6-0.1-0.9V6h-1V4.5h0.9V3h1.9v1.6h1.4V6H22.4z"/>
		<path class="st3" d="M31.1,7.5c0,0.5-0.1,0.9-0.3,1.3c-0.2,0.4-0.4,0.7-0.7,1c-0.3,0.3-0.7,0.5-1.1,0.6c-0.4,0.2-0.8,0.2-1.3,0.2
			c-0.4,0-0.9-0.1-1.3-0.2c-0.4-0.2-0.8-0.4-1.1-0.6c-0.3-0.3-0.5-0.6-0.7-1c-0.2-0.4-0.3-0.8-0.3-1.3c0-0.5,0.1-0.9,0.3-1.3
			c0.2-0.4,0.4-0.7,0.7-1c0.3-0.3,0.7-0.5,1.1-0.6c0.4-0.1,0.8-0.2,1.3-0.2c0.5,0,0.9,0.1,1.3,0.2c0.4,0.1,0.8,0.4,1.1,0.6
			c0.3,0.3,0.5,0.6,0.7,1C31,6.6,31.1,7,31.1,7.5z M29.2,7.5c0-0.2,0-0.4-0.1-0.6c-0.1-0.2-0.2-0.3-0.3-0.5
			c-0.1-0.1-0.3-0.3-0.4-0.3C28.2,6,28,6,27.8,6c-0.2,0-0.4,0-0.6,0.1c-0.2,0.1-0.3,0.2-0.4,0.3c-0.1,0.1-0.2,0.3-0.3,0.5
			c-0.1,0.2-0.1,0.4-0.1,0.6c0,0.2,0,0.4,0.1,0.6c0.1,0.2,0.2,0.4,0.3,0.5c0.1,0.1,0.3,0.3,0.4,0.4S27.5,9,27.8,9s0.4,0,0.6-0.1
			c0.2-0.1,0.3-0.2,0.4-0.4c0.1-0.1,0.2-0.3,0.3-0.5C29.1,7.9,29.2,7.7,29.2,7.5z"/>
		<path class="st3" d="M36.2,10.5V7.2c0-0.2,0-0.3,0-0.5c0-0.2-0.1-0.3-0.1-0.4c-0.1-0.1-0.2-0.2-0.3-0.3C35.7,6,35.5,6,35.4,6
			S35,6,34.9,6.1s-0.2,0.2-0.3,0.3s-0.2,0.3-0.2,0.4c0,0.2-0.1,0.3-0.1,0.5v3.2h-2v-6h1.9v0.8h0c0.1-0.1,0.2-0.3,0.3-0.4
			c0.1-0.1,0.3-0.2,0.4-0.3c0.2-0.1,0.3-0.2,0.5-0.2c0.2-0.1,0.4-0.1,0.6-0.1c0.4,0,0.7,0.1,1,0.2c0.3,0.1,0.5,0.3,0.7,0.6
			c0.2,0.2,0.3,0.5,0.4,0.8s0.1,0.6,0.1,0.9v3.7H36.2z"/>
	</g>
</g>
<g>
	<rect x="476.1" y="74.8" transform="matrix(0.7442 -0.668 0.668 0.7442 82.0882 364.9873)" class="st4" width="82.9" height="1"/>
</g>
<g>
	<path pointer-events="none" class="st4" d="M482.8,106.5l2.9-7.3l1,3.8l3.6,1.4L482.8,106.5z"/>
	<path class="st4" d="M482,107.2l3.8-9.6l1.4,5l4.8,1.9L482,107.2z M485.6,100.8l-2,5l5.1-1.4l-2.5-1L485.6,100.8z"/>
</g>
<g>
	<ellipse pointer-events="none" class="st5" cx="461.5" cy="261.5" rx="27.8" ry="27.8"/>
	<path class="st1" d="M461.8,289.8l0-1c1,0,2-0.1,2.9-0.2l0.1,1C463.8,289.7,462.8,289.7,461.8,289.8z M458.7,289.6
		c-1-0.1-2-0.3-3-0.5l0.2-1c1,0.2,1.9,0.3,2.9,0.4L458.7,289.6z M467.8,289l-0.2-1c1-0.2,1.9-0.5,2.8-0.8l0.3,0.9
		C469.8,288.5,468.8,288.8,467.8,289z M452.8,288.4c-1-0.3-1.9-0.7-2.8-1.1l0.4-0.9c0.9,0.4,1.8,0.8,2.7,1.1L452.8,288.4z
		 M473.6,287.1l-0.4-0.9c0.9-0.4,1.8-0.9,2.6-1.4l0.5,0.9C475.4,286.1,474.5,286.6,473.6,287.1z M447.2,285.9
		c-0.9-0.5-1.7-1.1-2.5-1.7l0.6-0.8c0.8,0.6,1.6,1.1,2.5,1.6L447.2,285.9z M478.8,283.9l-0.6-0.8c0.8-0.6,1.5-1.2,2.2-1.9l0.7,0.7
		C480.4,282.6,479.6,283.2,478.8,283.9z M442.3,282.2c-0.7-0.7-1.5-1.4-2.1-2.2l0.8-0.7c0.6,0.7,1.3,1.5,2.1,2.1L442.3,282.2z
		 M483.2,279.6l-0.8-0.6c0.6-0.7,1.2-1.5,1.8-2.4l0.8,0.6C484.4,278.1,483.8,278.9,483.2,279.6z M438.3,277.7
		c-0.6-0.8-1.1-1.7-1.6-2.6l0.9-0.5c0.5,0.9,1,1.7,1.6,2.5L438.3,277.7z M486.6,274.6l-0.9-0.5c0.5-0.9,0.9-1.8,1.2-2.7l0.9,0.4
		C487.5,272.8,487,273.7,486.6,274.6z M435.4,272.3c-0.4-0.9-0.7-1.9-1-2.9l1-0.3c0.3,0.9,0.6,1.9,1,2.8L435.4,272.3z M488.8,268.9
		l-1-0.3c0.3-0.9,0.5-1.9,0.6-2.9l1,0.2C489.3,266.9,489.1,267.9,488.8,268.9z M433.7,266.5c-0.2-1-0.3-2-0.4-3l1-0.1
		c0.1,1,0.2,2,0.4,2.9L433.7,266.5z M489.7,262.9l-1,0c0-0.4,0-0.9,0-1.3c0-0.5,0-1.1,0-1.6l1-0.1c0,0.6,0,1.1,0,1.7
		C489.8,262,489.8,262.4,489.7,262.9z M434.2,260.4l-1,0c0-1,0.1-2,0.3-3l1,0.1C434.4,258.5,434.3,259.4,434.2,260.4z M488.4,257
		c-0.2-1-0.4-1.9-0.6-2.9l1-0.3c0.3,1,0.5,2,0.7,3L488.4,257z M435.1,254.6l-1-0.3c0.3-1,0.6-2,0.9-2.9l0.9,0.4
		C435.6,252.7,435.3,253.7,435.1,254.6z M486.8,251.3c-0.4-0.9-0.8-1.8-1.2-2.7l0.9-0.5c0.5,0.9,0.9,1.8,1.3,2.8L486.8,251.3z
		 M437.2,249.1l-0.9-0.5c0.5-0.9,1-1.8,1.5-2.6l0.8,0.5C438.1,247.4,437.6,248.2,437.2,249.1z M484,246.1c-0.6-0.8-1.2-1.6-1.8-2.3
		l0.8-0.7c0.7,0.8,1.3,1.6,1.9,2.4L484,246.1z M440.4,244.2l-0.8-0.6c0.6-0.8,1.3-1.5,2.1-2.2l0.7,0.7
		C441.7,242.7,441,243.4,440.4,244.2z M480.2,241.7c-0.7-0.7-1.5-1.3-2.2-1.9l0.6-0.8c0.8,0.6,1.6,1.3,2.3,2L480.2,241.7z
		 M444.6,240.1l-0.6-0.8c0.8-0.6,1.6-1.2,2.5-1.8l0.5,0.8C446.2,238.9,445.4,239.5,444.6,240.1z M475.5,238.1
		c-0.8-0.5-1.7-1-2.6-1.4l0.4-0.9c0.9,0.4,1.8,0.9,2.7,1.4L475.5,238.1z M449.6,237l-0.4-0.9c0.9-0.4,1.9-0.8,2.8-1.2l0.3,0.9
		C451.4,236.2,450.5,236.5,449.6,237z M470.2,235.7c-0.9-0.3-1.9-0.6-2.8-0.8l0.2-1c1,0.2,2,0.5,2.9,0.8L470.2,235.7z M455.1,235
		l-0.2-1c1-0.2,2-0.4,3-0.5l0.1,1C457.1,234.6,456.1,234.8,455.1,235z M464.4,234.4c-1.1-0.1-2.3-0.2-3.5-0.2l0-1
		c1.2,0,2.4,0,3.6,0.2L464.4,234.4z"/>
</g>
<g transform="translate(456.5,254.5)">
	<g class="st2">
		<path class="st3" d="M4.9,8.5h2.7v0.7H4.9v2.7H4.1V9.2H1.4V8.5h2.7V5.8h0.7V8.5z"/>
	</g>
</g>
<g>
	<rect x="460.8" y="153.5" class="st4" width="1" height="74.1"/>
</g>
<g>
	<path pointer-events="none" class="st4" d="M461.3,232.9l-3.5-7l3.5,1.8l3.5-1.8L461.3,232.9z"/>
	<path class="st4" d="M461.3,234l-4.6-9.2l4.6,2.3l4.6-2.3L461.3,234z M458.9,227l2.4,4.8l2.4-4.8l-2.4,1.2L458.9,227z"/>
</g>
<g>
	<ellipse pointer-events="none" class="st0" cx="569.5" cy="125.5" rx="27.8" ry="27.8"/>
	<path class="st1" d="M569.5,153.8c-15.6,0-28.3-12.7-28.3-28.3s12.7-28.3,28.3-28.3s28.3,12.7,28.3,28.3S585.1,153.8,569.5,153.8z
		 M569.5,98.2c-15,0-27.3,12.2-27.3,27.3s12.2,27.3,27.3,27.3s27.3-12.2,27.3-27.3S584.5,98.2,569.5,98.2z"/>
</g>
<g transform="translate(554.5,118.5)">
	<g class="st2">
		<path class="st3" d="M4.9,6.3C4.8,6.1,4.6,6,4.4,5.9C4.1,5.8,3.9,5.7,3.7,5.7c-0.2,0-0.4,0-0.5,0.1C3,5.9,2.9,6.1,2.9,6.2
			c0,0.2,0.1,0.3,0.3,0.4C3.4,6.7,3.6,6.7,4,6.8c0.2,0,0.5,0.1,0.7,0.2c0.2,0.1,0.4,0.2,0.6,0.3c0.2,0.1,0.3,0.3,0.4,0.5
			s0.2,0.5,0.2,0.7c0,0.4-0.1,0.7-0.2,1c-0.2,0.3-0.4,0.5-0.6,0.6c-0.2,0.2-0.5,0.3-0.8,0.3c-0.3,0.1-0.6,0.1-0.9,0.1
			c-0.5,0-1-0.1-1.4-0.2c-0.5-0.2-0.9-0.4-1.2-0.7l1.1-1.2C2,8.8,2.3,9,2.5,9.1C2.8,9.2,3,9.3,3.3,9.3c0.2,0,0.3,0,0.5-0.1
			C4,9.1,4,9,4,8.8c0-0.2-0.1-0.3-0.3-0.4C3.6,8.3,3.3,8.2,2.9,8.1C2.6,8,2.4,8,2.2,7.9C2,7.8,1.8,7.7,1.7,7.6
			C1.5,7.4,1.4,7.3,1.3,7.1C1.2,6.9,1.1,6.6,1.1,6.3c0-0.4,0.1-0.7,0.2-0.9C1.5,5.2,1.7,5,1.9,4.8c0.2-0.2,0.5-0.3,0.8-0.4
			C3,4.4,3.3,4.3,3.6,4.3c0.4,0,0.9,0.1,1.3,0.2S5.7,4.9,6,5.2L4.9,6.3z"/>
		<path class="st3" d="M13.7,7.5c0,0.4-0.1,0.8-0.2,1.2c-0.1,0.4-0.3,0.7-0.6,1s-0.5,0.5-0.9,0.7c-0.4,0.2-0.8,0.3-1.2,0.3
			c-0.4,0-0.7-0.1-1-0.2c-0.3-0.1-0.6-0.4-0.8-0.6h0v3.5h-2V4.5h1.9v0.7h0C9.2,5,9.4,4.8,9.7,4.6s0.7-0.3,1.1-0.3
			c0.4,0,0.8,0.1,1.2,0.3C12.4,4.8,12.7,5,13,5.3s0.4,0.6,0.6,1C13.6,6.7,13.7,7.1,13.7,7.5z M11.8,7.5c0-0.2,0-0.4-0.1-0.6
			c-0.1-0.2-0.1-0.3-0.3-0.5c-0.1-0.1-0.3-0.3-0.4-0.3C10.8,6,10.6,6,10.4,6C10.2,6,10,6,9.8,6.1C9.6,6.2,9.5,6.3,9.4,6.4
			C9.2,6.6,9.1,6.8,9.1,6.9C9,7.1,9,7.3,9,7.5s0,0.4,0.1,0.6c0.1,0.2,0.2,0.3,0.3,0.5c0.1,0.1,0.3,0.3,0.4,0.3S10.2,9,10.4,9
			c0.2,0,0.4,0,0.6-0.1c0.2-0.1,0.3-0.2,0.4-0.3c0.1-0.1,0.2-0.3,0.3-0.5C11.8,7.9,11.8,7.7,11.8,7.5z"/>
		<path class="st3" d="M14.9,5.3c0.4-0.3,0.8-0.6,1.2-0.8s0.9-0.3,1.4-0.3c0.5,0,0.9,0.1,1.3,0.2c0.3,0.1,0.6,0.3,0.8,0.6
			c0.2,0.3,0.4,0.6,0.5,1c0.1,0.4,0.2,0.9,0.2,1.4v3h-1.8V9.9h0c-0.2,0.2-0.4,0.4-0.7,0.6c-0.3,0.1-0.6,0.2-1,0.2
			c-0.2,0-0.5,0-0.7-0.1c-0.3-0.1-0.5-0.2-0.7-0.3c-0.2-0.1-0.4-0.3-0.5-0.6c-0.1-0.2-0.2-0.5-0.2-0.9c0-0.4,0.1-0.8,0.4-1
			c0.2-0.3,0.5-0.5,0.9-0.6c0.4-0.1,0.8-0.2,1.2-0.3s0.9-0.1,1.3-0.1V6.7c0-0.3-0.1-0.5-0.3-0.7c-0.2-0.1-0.5-0.2-0.8-0.2
			c-0.3,0-0.5,0.1-0.8,0.2c-0.3,0.1-0.5,0.3-0.7,0.4L14.9,5.3z M18.5,7.9h-0.3c-0.2,0-0.4,0-0.7,0C17.4,7.9,17.2,8,17,8
			c-0.2,0.1-0.3,0.1-0.4,0.2c-0.1,0.1-0.2,0.2-0.2,0.4c0,0.1,0,0.2,0.1,0.3s0.1,0.1,0.2,0.2c0.1,0,0.2,0.1,0.3,0.1
			c0.1,0,0.2,0,0.3,0c0.4,0,0.7-0.1,0.9-0.3s0.3-0.5,0.3-0.9V7.9z"/>
		<path class="st3" d="M25.7,10.5V7.2c0-0.2,0-0.3,0-0.5c0-0.2-0.1-0.3-0.1-0.4c-0.1-0.1-0.2-0.2-0.3-0.3C25.1,6,25,6,24.8,6
			s-0.3,0-0.5,0.1S24.1,6.2,24,6.4s-0.2,0.3-0.2,0.4c0,0.2-0.1,0.3-0.1,0.5v3.2h-2v-6h1.9v0.8h0C23.7,5.2,23.8,5.1,24,5
			c0.1-0.1,0.3-0.2,0.4-0.3c0.2-0.1,0.3-0.2,0.5-0.2c0.2-0.1,0.4-0.1,0.6-0.1c0.4,0,0.7,0.1,1,0.2c0.3,0.1,0.5,0.3,0.7,0.6
			c0.2,0.2,0.3,0.5,0.4,0.8s0.1,0.6,0.1,0.9v3.7H25.7z"/>
	</g>
</g>
<g>
	<rect x="568.7" y="57" class="st4" width="1" height="34.7"/>
</g>
<g>
	<path pointer-events="none" class="st4" d="M569.2,96.9l-3.5-7l3.5,1.8l3.5-1.8L569.2,96.9z"/>
	<path class="st4" d="M569.2,98l-4.6-9.2l4.6,2.3l4.6-2.3L569.2,98z M566.8,91l2.4,4.8l2.4-4.8l-2.4,1.2L566.8,91z"/>
</g>
<g>
	<ellipse pointer-events="none" class="st6" cx="569.5" cy="261.5" rx="27.8" ry="27.8"/>
	<path class="st7" d="M569.8,289.8l0-1c1,0,2-0.1,2.9-0.2l0.1,1C571.8,289.7,570.8,289.7,569.8,289.8z M566.7,289.6
		c-1-0.1-2-0.3-3-0.5l0.2-1c1,0.2,1.9,0.3,2.9,0.4L566.7,289.6z M575.8,289l-0.2-1c1-0.2,1.9-0.5,2.8-0.8l0.3,0.9
		C577.8,288.5,576.8,288.8,575.8,289z M560.8,288.4c-1-0.3-1.9-0.7-2.8-1.1l0.4-0.9c0.9,0.4,1.8,0.8,2.7,1.1L560.8,288.4z
		 M581.6,287.1l-0.4-0.9c0.9-0.4,1.8-0.9,2.6-1.4l0.5,0.9C583.4,286.1,582.5,286.6,581.6,287.1z M555.2,285.9
		c-0.9-0.5-1.7-1.1-2.5-1.7l0.6-0.8c0.8,0.6,1.6,1.1,2.5,1.6L555.2,285.9z M586.8,283.9l-0.6-0.8c0.8-0.6,1.5-1.2,2.2-1.9l0.7,0.7
		C588.4,282.6,587.6,283.2,586.8,283.9z M550.3,282.2c-0.7-0.7-1.5-1.4-2.1-2.2l0.8-0.7c0.6,0.7,1.3,1.5,2.1,2.1L550.3,282.2z
		 M591.2,279.6l-0.8-0.6c0.6-0.7,1.2-1.5,1.8-2.4l0.8,0.6C592.4,278.1,591.8,278.9,591.2,279.6z M546.3,277.7
		c-0.6-0.8-1.1-1.7-1.6-2.6l0.9-0.5c0.5,0.9,1,1.7,1.6,2.5L546.3,277.7z M594.6,274.6l-0.9-0.5c0.5-0.9,0.9-1.8,1.2-2.7l0.9,0.4
		C595.5,272.8,595,273.7,594.6,274.6z M543.4,272.3c-0.4-0.9-0.7-1.9-1-2.9l1-0.3c0.3,0.9,0.6,1.9,1,2.8L543.4,272.3z M596.8,268.9
		l-1-0.3c0.3-0.9,0.5-1.9,0.6-2.9l1,0.2C597.3,266.9,597.1,267.9,596.8,268.9z M541.7,266.5c-0.2-1-0.3-2-0.4-3l1-0.1
		c0.1,1,0.2,2,0.4,2.9L541.7,266.5z M597.7,262.9l-1,0c0-0.4,0-0.9,0-1.3c0-0.5,0-1.1,0-1.6l1-0.1c0,0.6,0,1.1,0,1.7
		C597.8,262,597.8,262.4,597.7,262.9z M542.2,260.4l-1,0c0-1,0.1-2,0.3-3l1,0.1C542.4,258.5,542.3,259.4,542.2,260.4z M596.4,257
		c-0.2-1-0.4-1.9-0.6-2.9l1-0.3c0.3,1,0.5,2,0.7,3L596.4,257z M543.1,254.6l-1-0.3c0.3-1,0.6-2,0.9-2.9l0.9,0.4
		C543.6,252.7,543.3,253.7,543.1,254.6z M594.8,251.3c-0.4-0.9-0.8-1.8-1.2-2.7l0.9-0.5c0.5,0.9,0.9,1.8,1.3,2.8L594.8,251.3z
		 M545.2,249.1l-0.9-0.5c0.5-0.9,1-1.8,1.5-2.6l0.8,0.5C546.1,247.4,545.6,248.2,545.2,249.1z M592,246.1c-0.6-0.8-1.2-1.6-1.8-2.3
		l0.8-0.7c0.7,0.8,1.3,1.6,1.9,2.4L592,246.1z M548.4,244.2l-0.8-0.6c0.6-0.8,1.3-1.5,2.1-2.2l0.7,0.7
		C549.7,242.7,549,243.4,548.4,244.2z M588.2,241.7c-0.7-0.7-1.5-1.3-2.2-1.9l0.6-0.8c0.8,0.6,1.6,1.3,2.3,2L588.2,241.7z
		 M552.6,240.1l-0.6-0.8c0.8-0.6,1.6-1.2,2.5-1.8l0.5,0.8C554.2,238.9,553.4,239.5,552.6,240.1z M583.5,238.1
		c-0.8-0.5-1.7-1-2.6-1.4l0.4-0.9c0.9,0.4,1.8,0.9,2.7,1.4L583.5,238.1z M557.6,237l-0.4-0.9c0.9-0.4,1.9-0.8,2.8-1.2l0.3,0.9
		C559.4,236.2,558.5,236.5,557.6,237z M578.2,235.7c-0.9-0.3-1.9-0.6-2.8-0.8l0.2-1c1,0.2,2,0.5,2.9,0.8L578.2,235.7z M563.1,235
		l-0.2-1c1-0.2,2-0.4,3-0.5l0.1,1C565.1,234.6,564.1,234.8,563.1,235z M572.4,234.4c-1.1-0.1-2.3-0.2-3.5-0.2l0-1
		c1.2,0,2.4,0,3.6,0.2L572.4,234.4z"/>
</g>
<g transform="translate(564.5,254.5)">
	<g class="st2">
		<path class="st5" d="M4,12.5V6.3L2.4,7.5l-1-1.4L4.2,4H6v8.5H4z"/>
	</g>
</g>
<g>
	<rect x="568.7" y="153.5" class="st4" width="1" height="74.1"/>
</g>
<g>
	<path pointer-events="none" class="st4" d="M569.2,232.9l-3.5-7l3.5,1.8l3.5-1.8L569.2,232.9z"/>
	<path class="st4" d="M569.2,234l-4.6-9.2l4.6,2.3l4.6-2.3L569.2,234z M566.8,227l2.4,4.8l2.4-4.8l-2.4,1.2L566.8,227z"/>
</g>
<g>
	<ellipse pointer-events="none" class="st0" cx="678.5" cy="125.5" rx="27.8" ry="27.8"/>
	<path class="st1" d="M678.5,153.8c-15.6,0-28.3-12.7-28.3-28.3s12.7-28.3,28.3-28.3s28.3,12.7,28.3,28.3S694.1,153.8,678.5,153.8z
		 M678.5,98.2c-15,0-27.3,12.2-27.3,27.3s12.2,27.3,27.3,27.3s27.3-12.2,27.3-27.3S693.5,98.2,678.5,98.2z"/>
</g>
<g transform="translate(658.5,118.5)">
	<g class="st2">
		<path class="st3" d="M7.5,7.5c0,0.4-0.1,0.8-0.2,1.2C7.2,9.1,7,9.4,6.7,9.7c-0.2,0.3-0.5,0.5-0.9,0.7c-0.4,0.2-0.8,0.3-1.2,0.3
			c-0.4,0-0.8-0.1-1.1-0.2C3.1,10.3,2.9,10,2.7,9.7h0v0.8H0.8V1.4h2v3.7h0C3,5,3.2,4.8,3.5,4.6s0.7-0.3,1.1-0.3
			c0.4,0,0.8,0.1,1.2,0.3S6.5,5,6.7,5.3s0.4,0.6,0.6,1S7.5,7.1,7.5,7.5z M5.6,7.5c0-0.2,0-0.4-0.1-0.6C5.4,6.7,5.3,6.6,5.2,6.4
			C5.1,6.3,5,6.2,4.8,6.1C4.6,6,4.4,6,4.2,6C3.9,6,3.7,6,3.6,6.1C3.4,6.2,3.2,6.3,3.1,6.4C3,6.6,2.9,6.8,2.8,6.9
			C2.8,7.1,2.7,7.3,2.7,7.5s0,0.4,0.1,0.6C2.9,8.2,3,8.4,3.1,8.6c0.1,0.1,0.3,0.3,0.5,0.3C3.7,9,3.9,9,4.2,9c0.2,0,0.4,0,0.6-0.1
			C5,8.8,5.1,8.7,5.2,8.6c0.1-0.1,0.2-0.3,0.3-0.5C5.6,7.9,5.6,7.7,5.6,7.5z"/>
		<path class="st3" d="M12.7,10.5V9.7h0c-0.1,0.1-0.2,0.3-0.3,0.4c-0.1,0.1-0.3,0.2-0.4,0.3s-0.3,0.2-0.5,0.2
			c-0.2,0.1-0.4,0.1-0.6,0.1c-0.4,0-0.7-0.1-1-0.2c-0.3-0.1-0.5-0.3-0.7-0.6C9,9.7,8.9,9.4,8.8,9.1S8.7,8.5,8.7,8.2V4.5h2v3.2
			c0,0.2,0,0.3,0,0.5c0,0.2,0.1,0.3,0.1,0.4c0.1,0.1,0.2,0.2,0.3,0.3C11.2,9,11.4,9,11.5,9c0.3,0,0.6-0.1,0.8-0.4s0.3-0.6,0.3-0.9
			V4.5h2v6H12.7z"/>
		<path class="st3" d="M18.2,6v2.3c0,0.3,0.1,0.5,0.2,0.6C18.5,9,18.7,9.1,19,9.1c0.1,0,0.2,0,0.3,0c0.1,0,0.2,0,0.3-0.1l0,1.4
			c-0.1,0-0.3,0.1-0.5,0.1s-0.4,0.1-0.6,0.1c-0.4,0-0.7,0-1-0.2c-0.3-0.1-0.5-0.2-0.7-0.4s-0.3-0.4-0.4-0.7s-0.1-0.6-0.1-0.9V6h-1
			V4.5h0.9V3h1.9v1.6h1.4V6H18.2z"/>
		<path class="st3" d="M22.4,6v2.3c0,0.3,0.1,0.5,0.2,0.6c0.1,0.1,0.3,0.2,0.6,0.2c0.1,0,0.2,0,0.3,0c0.1,0,0.2,0,0.3-0.1l0,1.4
			c-0.1,0-0.3,0.1-0.5,0.1c-0.2,0-0.4,0.1-0.6,0.1c-0.4,0-0.7,0-1-0.2c-0.3-0.1-0.5-0.2-0.7-0.4s-0.3-0.4-0.4-0.7
			c-0.1-0.3-0.1-0.6-0.1-0.9V6h-1V4.5h0.9V3h1.9v1.6h1.4V6H22.4z"/>
		<path class="st3" d="M31.1,7.5c0,0.5-0.1,0.9-0.3,1.3c-0.2,0.4-0.4,0.7-0.7,1c-0.3,0.3-0.7,0.5-1.1,0.6c-0.4,0.2-0.8,0.2-1.3,0.2
			c-0.4,0-0.9-0.1-1.3-0.2c-0.4-0.2-0.8-0.4-1.1-0.6c-0.3-0.3-0.5-0.6-0.7-1c-0.2-0.4-0.3-0.8-0.3-1.3c0-0.5,0.1-0.9,0.3-1.3
			c0.2-0.4,0.4-0.7,0.7-1c0.3-0.3,0.7-0.5,1.1-0.6c0.4-0.1,0.8-0.2,1.3-0.2c0.5,0,0.9,0.1,1.3,0.2c0.4,0.1,0.8,0.4,1.1,0.6
			c0.3,0.3,0.5,0.6,0.7,1C31,6.6,31.1,7,31.1,7.5z M29.2,7.5c0-0.2,0-0.4-0.1-0.6c-0.1-0.2-0.2-0.3-0.3-0.5
			c-0.1-0.1-0.3-0.3-0.4-0.3C28.2,6,28,6,27.8,6c-0.2,0-0.4,0-0.6,0.1c-0.2,0.1-0.3,0.2-0.4,0.3c-0.1,0.1-0.2,0.3-0.3,0.5
			c-0.1,0.2-0.1,0.4-0.1,0.6c0,0.2,0,0.4,0.1,0.6c0.1,0.2,0.2,0.4,0.3,0.5c0.1,0.1,0.3,0.3,0.4,0.4S27.5,9,27.8,9s0.4,0,0.6-0.1
			c0.2-0.1,0.3-0.2,0.4-0.4c0.1-0.1,0.2-0.3,0.3-0.5C29.1,7.9,29.2,7.7,29.2,7.5z"/>
		<path class="st3" d="M36.2,10.5V7.2c0-0.2,0-0.3,0-0.5c0-0.2-0.1-0.3-0.1-0.4c-0.1-0.1-0.2-0.2-0.3-0.3C35.7,6,35.5,6,35.4,6
			S35,6,34.9,6.1s-0.2,0.2-0.3,0.3s-0.2,0.3-0.2,0.4c0,0.2-0.1,0.3-0.1,0.5v3.2h-2v-6h1.9v0.8h0c0.1-0.1,0.2-0.3,0.3-0.4
			c0.1-0.1,0.3-0.2,0.4-0.3c0.2-0.1,0.3-0.2,0.5-0.2c0.2-0.1,0.4-0.1,0.6-0.1c0.4,0,0.7,0.1,1,0.2c0.3,0.1,0.5,0.3,0.7,0.6
			c0.2,0.2,0.3,0.5,0.4,0.8s0.1,0.6,0.1,0.9v3.7H36.2z"/>
	</g>
</g>
<g>
	<rect x="621" y="33.4" transform="matrix(0.6607 -0.7506 0.7506 0.6607 154.2354 492.1407)" class="st4" width="1" height="84.1"/>
</g>
<g>
	<path pointer-events="none" class="st4" d="M657,106.7l-7.6-2l3.6-1.5l1-3.8L657,106.7z"/>
	<path class="st4" d="M657.9,107.4l-10-2.6l4.8-1.9l1.3-5L657.9,107.4z M651,104.6l5.2,1.4l-2-4.9l-0.7,2.6L651,104.6z"/>
</g>
<g>
	<ellipse pointer-events="none" class="st5" cx="678.5" cy="261.5" rx="27.8" ry="27.8"/>
	<path class="st1" d="M678.8,289.8l0-1c1,0,2-0.1,2.9-0.2l0.1,1C680.8,289.7,679.8,289.7,678.8,289.8z M675.7,289.6
		c-1-0.1-2-0.3-3-0.5l0.2-1c1,0.2,1.9,0.3,2.9,0.4L675.7,289.6z M684.8,289l-0.2-1c1-0.2,1.9-0.5,2.8-0.8l0.3,0.9
		C686.8,288.5,685.8,288.8,684.8,289z M669.8,288.4c-1-0.3-1.9-0.7-2.8-1.1l0.4-0.9c0.9,0.4,1.8,0.8,2.7,1.1L669.8,288.4z
		 M690.6,287.1l-0.4-0.9c0.9-0.4,1.8-0.9,2.6-1.4l0.5,0.9C692.4,286.1,691.5,286.6,690.6,287.1z M664.2,285.9
		c-0.9-0.5-1.7-1.1-2.5-1.7l0.6-0.8c0.8,0.6,1.6,1.1,2.5,1.6L664.2,285.9z M695.8,283.9l-0.6-0.8c0.8-0.6,1.5-1.2,2.2-1.9l0.7,0.7
		C697.4,282.6,696.6,283.2,695.8,283.9z M659.3,282.2c-0.7-0.7-1.5-1.4-2.1-2.2l0.8-0.7c0.6,0.7,1.3,1.5,2.1,2.1L659.3,282.2z
		 M700.2,279.6l-0.8-0.6c0.6-0.7,1.2-1.5,1.8-2.4l0.8,0.6C701.4,278.1,700.8,278.9,700.2,279.6z M655.3,277.7
		c-0.6-0.8-1.1-1.7-1.6-2.6l0.9-0.5c0.5,0.9,1,1.7,1.6,2.5L655.3,277.7z M703.6,274.6l-0.9-0.5c0.5-0.9,0.9-1.8,1.2-2.7l0.9,0.4
		C704.5,272.8,704,273.7,703.6,274.6z M652.4,272.3c-0.4-0.9-0.7-1.9-1-2.9l1-0.3c0.3,0.9,0.6,1.9,1,2.8L652.4,272.3z M705.8,268.9
		l-1-0.3c0.3-0.9,0.5-1.9,0.6-2.9l1,0.2C706.3,266.9,706.1,267.9,705.8,268.9z M650.7,266.5c-0.2-1-0.3-2-0.4-3l1-0.1
		c0.1,1,0.2,2,0.4,2.9L650.7,266.5z M706.7,262.9l-1,0c0-0.4,0-0.9,0-1.3c0-0.5,0-1.1,0-1.6l1-0.1c0,0.6,0,1.1,0,1.7
		C706.8,262,706.8,262.4,706.7,262.9z M651.2,260.4l-1,0c0-1,0.1-2,0.3-3l1,0.1C651.4,258.5,651.3,259.4,651.2,260.4z M705.4,257
		c-0.2-1-0.4-1.9-0.6-2.9l1-0.3c0.3,1,0.5,2,0.7,3L705.4,257z M652.1,254.6l-1-0.3c0.3-1,0.6-2,0.9-2.9l0.9,0.4
		C652.6,252.7,652.3,253.7,652.1,254.6z M703.8,251.3c-0.4-0.9-0.8-1.8-1.2-2.7l0.9-0.5c0.5,0.9,0.9,1.8,1.3,2.8L703.8,251.3z
		 M654.2,249.1l-0.9-0.5c0.5-0.9,1-1.8,1.5-2.6l0.8,0.5C655.1,247.4,654.6,248.2,654.2,249.1z M701,246.1c-0.6-0.8-1.2-1.6-1.8-2.3
		l0.8-0.7c0.7,0.8,1.3,1.6,1.9,2.4L701,246.1z M657.4,244.2l-0.8-0.6c0.6-0.8,1.3-1.5,2.1-2.2l0.7,0.7
		C658.7,242.7,658,243.4,657.4,244.2z M697.2,241.7c-0.7-0.7-1.5-1.3-2.2-1.9l0.6-0.8c0.8,0.6,1.6,1.3,2.3,2L697.2,241.7z
		 M661.6,240.1l-0.6-0.8c0.8-0.6,1.6-1.2,2.5-1.8l0.5,0.8C663.2,238.9,662.4,239.5,661.6,240.1z M692.5,238.1
		c-0.8-0.5-1.7-1-2.6-1.4l0.4-0.9c0.9,0.4,1.8,0.9,2.7,1.4L692.5,238.1z M666.6,237l-0.4-0.9c0.9-0.4,1.9-0.8,2.8-1.2l0.3,0.9
		C668.4,236.2,667.5,236.5,666.6,237z M687.2,235.7c-0.9-0.3-1.9-0.6-2.8-0.8l0.2-1c1,0.2,2,0.5,2.9,0.8L687.2,235.7z M672.1,235
		l-0.2-1c1-0.2,2-0.4,3-0.5l0.1,1C674.1,234.6,673.1,234.8,672.1,235z M681.4,234.4c-1.1-0.1-2.3-0.2-3.5-0.2l0-1
		c1.2,0,2.4,0,3.6,0.2L681.4,234.4z"/>
</g>
<g transform="translate(675.5,254.5)">
	<g class="st2">
		<path class="st3" d="M3.8,9.9H1.2V9.2h2.7V9.9z"/>
	</g>
</g>
<g>
	<rect x="678.2" y="153.5" class="st4" width="1" height="74.1"/>
</g>
<g>
	<path pointer-events="none" class="st4" d="M678.7,232.9l-3.5-7l3.5,1.8l3.5-1.8L678.7,232.9z"/>
	<path class="st4" d="M678.7,234l-4.6-9.2l4.6,2.3l4.6-2.3L678.7,234z M676.3,227l2.4,4.8l2.4-4.8l-2.4,1.2L676.3,227z"/>
</g>
<g transform="translate(78.5,327.5)">
	<g class="st2">
		<path d="M8.9,11.1c-0.1,0.2-0.3,0.4-0.5,0.6c-0.2,0.2-0.4,0.4-0.7,0.5c-0.3,0.1-0.6,0.3-0.9,0.3c-0.3,0.1-0.7,0.1-1.1,0.1
			c-0.6,0-1.2-0.1-1.8-0.3c-0.5-0.2-1-0.5-1.4-0.9c-0.4-0.4-0.7-0.9-0.9-1.4S1.3,8.9,1.3,8.3S1.4,7,1.6,6.5c0.2-0.5,0.5-1,0.9-1.4
			c0.4-0.4,0.9-0.7,1.4-0.9S5,3.8,5.7,3.8c0.3,0,0.6,0,0.9,0.1C6.9,4,7.2,4,7.4,4.2c0.3,0.1,0.5,0.3,0.7,0.4s0.4,0.4,0.5,0.6L8,5.7
			C7.9,5.5,7.8,5.4,7.6,5.3C7.5,5.1,7.3,5,7.1,4.9C6.9,4.8,6.7,4.7,6.5,4.7C6.2,4.6,6,4.6,5.7,4.6c-0.6,0-1,0.1-1.5,0.3
			C3.8,5.1,3.4,5.3,3.1,5.7C2.8,6,2.6,6.4,2.4,6.8C2.2,7.3,2.2,7.8,2.2,8.3s0.1,1,0.2,1.4c0.2,0.4,0.4,0.8,0.7,1.2
			c0.3,0.3,0.7,0.6,1.1,0.8c0.4,0.2,0.9,0.3,1.5,0.3c0.5,0,1-0.1,1.4-0.3c0.4-0.2,0.8-0.5,1.1-1L8.9,11.1z"/>
		<path d="M14.4,12.5c0-0.2,0-0.3,0-0.5c0-0.2,0-0.3,0-0.5h0c-0.2,0.3-0.4,0.6-0.8,0.8s-0.7,0.3-1.1,0.3c-0.7,0-1.2-0.2-1.6-0.6
			s-0.5-1-0.5-1.7V6.9h0.8V10c0,0.3,0,0.6,0.1,0.8s0.1,0.4,0.2,0.6c0.1,0.2,0.3,0.3,0.5,0.4c0.2,0.1,0.4,0.1,0.7,0.1
			c0.2,0,0.4,0,0.6-0.1s0.4-0.2,0.5-0.4c0.2-0.2,0.3-0.4,0.4-0.7c0.1-0.3,0.1-0.6,0.1-1V6.9h0.8v4.4c0,0.2,0,0.3,0,0.6
			c0,0.2,0,0.5,0,0.6H14.4z"/>
		<path d="M17.3,7.5c0-0.2,0-0.5,0-0.6H18c0,0.2,0,0.3,0,0.5c0,0.2,0,0.3,0,0.5h0c0.2-0.3,0.4-0.6,0.7-0.8s0.7-0.3,1.1-0.3
			c0.1,0,0.2,0,0.3,0s0.2,0,0.3,0l-0.1,0.8c0,0-0.1,0-0.2,0c-0.1,0-0.2,0-0.3,0c-0.2,0-0.4,0-0.6,0.1c-0.2,0.1-0.4,0.2-0.5,0.4
			s-0.3,0.4-0.4,0.7c-0.1,0.3-0.1,0.6-0.1,1v2.9h-0.8V8.1C17.3,8,17.3,7.8,17.3,7.5z"/>
		<path d="M21.6,7.5c0-0.2,0-0.5,0-0.6h0.8c0,0.2,0,0.3,0,0.5c0,0.2,0,0.3,0,0.5h0c0.2-0.3,0.4-0.6,0.7-0.8s0.7-0.3,1.1-0.3
			c0.1,0,0.2,0,0.3,0s0.2,0,0.3,0l-0.1,0.8c0,0-0.1,0-0.2,0c-0.1,0-0.2,0-0.3,0c-0.2,0-0.4,0-0.6,0.1c-0.2,0.1-0.4,0.2-0.5,0.4
			s-0.3,0.4-0.4,0.7c-0.1,0.3-0.1,0.6-0.1,1v2.9h-0.8V8.1C21.6,8,21.6,7.8,21.6,7.5z"/>
		<path d="M30.8,9.5c0,0.1,0,0.1,0,0.2s0,0.1,0,0.2h-4.7c0,0.3,0.1,0.5,0.2,0.8c0.1,0.2,0.2,0.5,0.4,0.6c0.2,0.2,0.4,0.3,0.6,0.4
			c0.2,0.1,0.5,0.2,0.8,0.2c0.4,0,0.8-0.1,1.1-0.3s0.5-0.4,0.7-0.7l0.6,0.5c-0.3,0.4-0.7,0.7-1.1,0.9c-0.4,0.2-0.8,0.3-1.3,0.3
			c-0.4,0-0.8-0.1-1.2-0.2c-0.4-0.1-0.7-0.4-0.9-0.6c-0.3-0.3-0.5-0.6-0.6-0.9c-0.1-0.4-0.2-0.8-0.2-1.2c0-0.4,0.1-0.8,0.2-1.2
			c0.1-0.4,0.3-0.7,0.6-0.9C26.4,7.3,26.7,7.1,27,7c0.3-0.1,0.7-0.2,1.1-0.2c0.4,0,0.8,0.1,1.2,0.2c0.3,0.1,0.6,0.3,0.8,0.6
			c0.2,0.3,0.4,0.5,0.5,0.9C30.8,8.8,30.8,9.1,30.8,9.5z M30,9.3c0-0.5-0.2-1-0.5-1.3c-0.3-0.3-0.8-0.5-1.3-0.5
			c-0.3,0-0.5,0-0.8,0.2c-0.2,0.1-0.4,0.2-0.6,0.4s-0.3,0.4-0.4,0.6c-0.1,0.2-0.2,0.4-0.2,0.7H30z"/>
		<path d="M33.3,6.9c0,0.2,0,0.3,0,0.5c0,0.2,0,0.3,0,0.5h0c0.2-0.3,0.4-0.6,0.8-0.8s0.7-0.3,1.1-0.3c0.7,0,1.2,0.2,1.6,0.6
			c0.4,0.4,0.5,1,0.5,1.7v3.4h-0.8V9.4c0-0.3,0-0.6-0.1-0.8S36.4,8.1,36.3,8c-0.1-0.2-0.3-0.3-0.5-0.4c-0.2-0.1-0.4-0.1-0.7-0.1
			c-0.2,0-0.4,0-0.6,0.1c-0.2,0.1-0.4,0.2-0.5,0.4s-0.3,0.4-0.4,0.7c-0.1,0.3-0.1,0.6-0.1,1v2.9h-0.8V8.1c0-0.2,0-0.3,0-0.6
			c0-0.2,0-0.5,0-0.6H33.3z"/>
		<path d="M42.1,7.6h-1.6v3.3c0,0.2,0,0.4,0.1,0.5c0,0.1,0.1,0.2,0.2,0.3c0.1,0.1,0.2,0.1,0.3,0.2c0.1,0,0.2,0,0.3,0
			c0.1,0,0.2,0,0.4,0s0.2-0.1,0.4-0.1l0,0.7c-0.1,0.1-0.3,0.1-0.5,0.1c-0.2,0-0.3,0-0.5,0c-0.2,0-0.3,0-0.5-0.1s-0.3-0.1-0.5-0.2
			c-0.1-0.1-0.3-0.3-0.4-0.5c-0.1-0.2-0.1-0.4-0.1-0.8V7.6h-1.2V6.9h1.2V5.3h0.8v1.6h1.6V7.6z"/>
		<path d="M49.3,8.2C49.2,8,49,7.8,48.8,7.6c-0.2-0.1-0.5-0.2-0.8-0.2c-0.1,0-0.3,0-0.4,0c-0.1,0-0.3,0.1-0.4,0.2s-0.2,0.2-0.3,0.3
			c-0.1,0.1-0.1,0.2-0.1,0.4c0,0.3,0.1,0.5,0.3,0.6s0.6,0.3,1,0.4c0.7,0.1,1.2,0.3,1.5,0.6c0.3,0.3,0.5,0.6,0.5,1.1
			c0,0.3-0.1,0.6-0.2,0.8c-0.1,0.2-0.3,0.4-0.5,0.5c-0.2,0.1-0.4,0.2-0.7,0.3c-0.3,0.1-0.5,0.1-0.8,0.1c-0.4,0-0.8-0.1-1.2-0.3
			c-0.4-0.2-0.7-0.5-1-0.8l0.6-0.5c0.1,0.2,0.4,0.5,0.6,0.6c0.3,0.2,0.6,0.3,0.9,0.3c0.2,0,0.3,0,0.5,0c0.2,0,0.3-0.1,0.4-0.2
			s0.2-0.2,0.3-0.3s0.1-0.3,0.1-0.5c0-0.3-0.1-0.5-0.4-0.7c-0.3-0.1-0.7-0.3-1.2-0.4c-0.2,0-0.3-0.1-0.5-0.1
			c-0.2-0.1-0.4-0.1-0.5-0.3c-0.2-0.1-0.3-0.3-0.4-0.4C46,8.9,46,8.6,46,8.4c0-0.3,0.1-0.5,0.2-0.7s0.3-0.4,0.5-0.5s0.4-0.2,0.6-0.3
			c0.2-0.1,0.5-0.1,0.7-0.1c0.4,0,0.8,0.1,1.1,0.3c0.4,0.2,0.6,0.4,0.8,0.7L49.3,8.2z"/>
		<path d="M54.2,7.6h-1.6v3.3c0,0.2,0,0.4,0.1,0.5c0,0.1,0.1,0.2,0.2,0.3c0.1,0.1,0.2,0.1,0.3,0.2c0.1,0,0.2,0,0.3,0
			c0.1,0,0.2,0,0.4,0s0.2-0.1,0.4-0.1l0,0.7c-0.1,0.1-0.3,0.1-0.5,0.1c-0.2,0-0.3,0-0.5,0c-0.2,0-0.3,0-0.5-0.1s-0.3-0.1-0.5-0.2
			c-0.1-0.1-0.3-0.3-0.4-0.5c-0.1-0.2-0.1-0.4-0.1-0.8V7.6h-1.2V6.9h1.2V5.3h0.8v1.6h1.6V7.6z"/>
		<path d="M59,8.9c0-0.5-0.1-0.8-0.4-1.1c-0.3-0.2-0.6-0.4-1.1-0.4c-0.3,0-0.6,0.1-0.9,0.2c-0.3,0.1-0.5,0.3-0.7,0.5l-0.5-0.5
			c0.2-0.2,0.5-0.4,0.9-0.6c0.4-0.2,0.8-0.2,1.3-0.2c0.3,0,0.6,0,0.9,0.1c0.3,0.1,0.5,0.2,0.7,0.4s0.4,0.4,0.5,0.6s0.2,0.6,0.2,0.9
			v2.5c0,0.2,0,0.4,0,0.7c0,0.2,0,0.4,0.1,0.6h-0.7c0-0.1,0-0.3-0.1-0.4c0-0.2,0-0.3,0-0.5h0c-0.3,0.4-0.5,0.6-0.9,0.8
			c-0.3,0.2-0.7,0.2-1.2,0.2c-0.2,0-0.4,0-0.7-0.1c-0.2-0.1-0.4-0.2-0.6-0.3c-0.2-0.1-0.3-0.3-0.5-0.5c-0.1-0.2-0.2-0.5-0.2-0.8
			c0-0.4,0.1-0.8,0.3-1c0.2-0.3,0.5-0.4,0.9-0.6c0.4-0.1,0.8-0.2,1.3-0.2C58,9.1,58.5,9,59,9V8.9z M58.8,9.7c-0.3,0-0.7,0-1,0
			c-0.3,0-0.6,0.1-0.9,0.2c-0.3,0.1-0.5,0.2-0.7,0.4c-0.2,0.2-0.3,0.4-0.3,0.6c0,0.2,0,0.4,0.1,0.5c0.1,0.1,0.2,0.2,0.3,0.3
			s0.3,0.1,0.4,0.2c0.2,0,0.3,0.1,0.5,0.1c0.3,0,0.5,0,0.8-0.1c0.2-0.1,0.4-0.2,0.6-0.4c0.2-0.2,0.3-0.4,0.3-0.6
			c0.1-0.2,0.1-0.5,0.1-0.7V9.7H58.8z"/>
		<path d="M64.3,7.6h-1.6v3.3c0,0.2,0,0.4,0.1,0.5c0,0.1,0.1,0.2,0.2,0.3c0.1,0.1,0.2,0.1,0.3,0.2c0.1,0,0.2,0,0.3,0
			c0.1,0,0.2,0,0.4,0s0.2-0.1,0.4-0.1l0,0.7c-0.1,0.1-0.3,0.1-0.5,0.1c-0.2,0-0.3,0-0.5,0c-0.2,0-0.3,0-0.5-0.1s-0.3-0.1-0.5-0.2
			c-0.1-0.1-0.3-0.3-0.4-0.5c-0.1-0.2-0.1-0.4-0.1-0.8V7.6h-1.2V6.9h1.2V5.3h0.8v1.6h1.6V7.6z"/>
		<path d="M70.7,9.5c0,0.1,0,0.1,0,0.2s0,0.1,0,0.2H66c0,0.3,0.1,0.5,0.2,0.8c0.1,0.2,0.2,0.5,0.4,0.6c0.2,0.2,0.4,0.3,0.6,0.4
			c0.2,0.1,0.5,0.2,0.8,0.2c0.4,0,0.8-0.1,1.1-0.3s0.5-0.4,0.7-0.7l0.6,0.5c-0.3,0.4-0.7,0.7-1.1,0.9c-0.4,0.2-0.8,0.3-1.3,0.3
			c-0.4,0-0.8-0.1-1.2-0.2c-0.4-0.1-0.7-0.4-0.9-0.6c-0.3-0.3-0.5-0.6-0.6-0.9c-0.1-0.4-0.2-0.8-0.2-1.2c0-0.4,0.1-0.8,0.2-1.2
			c0.1-0.4,0.3-0.7,0.6-0.9c0.3-0.3,0.6-0.5,0.9-0.6c0.3-0.1,0.7-0.2,1.1-0.2c0.4,0,0.8,0.1,1.2,0.2c0.3,0.1,0.6,0.3,0.8,0.6
			c0.2,0.3,0.4,0.5,0.5,0.9C70.6,8.8,70.7,9.1,70.7,9.5z M69.8,9.3c0-0.5-0.2-1-0.5-1.3C69,7.6,68.6,7.4,68,7.4
			c-0.3,0-0.5,0-0.8,0.2C67,7.7,66.8,7.8,66.6,8s-0.3,0.4-0.4,0.6C66.1,8.8,66,9,66,9.3H69.8z"/>
		<path d="M81,9.7c0,0.4-0.1,0.8-0.2,1.2c-0.1,0.4-0.4,0.7-0.6,0.9c-0.3,0.3-0.6,0.5-0.9,0.6c-0.4,0.1-0.8,0.2-1.2,0.2
			c-0.4,0-0.8-0.1-1.2-0.2c-0.4-0.1-0.7-0.4-0.9-0.6c-0.3-0.3-0.5-0.6-0.6-0.9c-0.1-0.4-0.2-0.8-0.2-1.2c0-0.4,0.1-0.8,0.2-1.2
			c0.1-0.4,0.4-0.7,0.6-0.9c0.3-0.3,0.6-0.5,0.9-0.6c0.4-0.1,0.8-0.2,1.2-0.2c0.4,0,0.8,0.1,1.2,0.2c0.4,0.1,0.7,0.4,0.9,0.6
			c0.3,0.3,0.5,0.6,0.6,0.9C80.9,8.9,81,9.3,81,9.7z M80.1,9.7c0-0.3,0-0.6-0.1-0.9c-0.1-0.3-0.2-0.5-0.4-0.7
			c-0.2-0.2-0.4-0.4-0.7-0.5c-0.3-0.1-0.6-0.2-0.9-0.2s-0.6,0.1-0.9,0.2c-0.3,0.1-0.5,0.3-0.7,0.5c-0.2,0.2-0.3,0.4-0.4,0.7
			c-0.1,0.3-0.1,0.6-0.1,0.9c0,0.3,0,0.6,0.1,0.9c0.1,0.3,0.2,0.5,0.4,0.7c0.2,0.2,0.4,0.4,0.7,0.5c0.3,0.1,0.6,0.2,0.9,0.2
			s0.6-0.1,0.9-0.2c0.3-0.1,0.5-0.3,0.7-0.5c0.2-0.2,0.3-0.4,0.4-0.7C80.1,10.3,80.1,10,80.1,9.7z"/>
		<path d="M85.1,7.6h-1.3v4.9H83V7.6h-1.2V6.9H83V5.3c0-0.6,0.2-1.1,0.5-1.5c0.3-0.4,0.8-0.6,1.4-0.6c0.1,0,0.2,0,0.3,0
			c0.1,0,0.2,0,0.3,0.1l-0.1,0.7c-0.1,0-0.2,0-0.3-0.1c-0.1,0-0.2,0-0.3,0c-0.2,0-0.4,0-0.5,0.1c-0.1,0.1-0.2,0.2-0.3,0.3
			s-0.1,0.3-0.2,0.5s0,0.4,0,0.6v1.4h1.3V7.6z"/>
		<path d="M89.6,4h2.8C93,4,93.5,4.1,94,4.3c0.5,0.2,1,0.4,1.4,0.8c0.4,0.4,0.8,0.8,1,1.3c0.3,0.5,0.4,1.1,0.4,1.9
			c0,0.7-0.1,1.3-0.4,1.9c-0.3,0.5-0.6,1-1,1.3c-0.4,0.4-0.9,0.6-1.4,0.8s-1.1,0.3-1.6,0.3h-2.8V4z M90.5,11.7h1.7
			c0.6,0,1.2-0.1,1.7-0.3c0.5-0.2,0.9-0.5,1.2-0.8c0.3-0.3,0.5-0.7,0.7-1.1C95.9,9.1,96,8.7,96,8.3c0-0.4-0.1-0.9-0.2-1.3
			c-0.2-0.4-0.4-0.8-0.7-1.1c-0.3-0.3-0.7-0.6-1.2-0.8s-1-0.3-1.7-0.3h-1.7V11.7z"/>
		<path d="M107.1,8.3c0,0.6-0.1,1.2-0.3,1.8c-0.2,0.5-0.5,1-0.9,1.4c-0.4,0.4-0.9,0.7-1.4,0.9s-1.1,0.3-1.8,0.3s-1.2-0.1-1.8-0.3
			s-1-0.5-1.4-0.9c-0.4-0.4-0.7-0.9-0.9-1.4s-0.3-1.1-0.3-1.8s0.1-1.2,0.3-1.8s0.5-1,0.9-1.4c0.4-0.4,0.9-0.7,1.4-0.9
			s1.1-0.3,1.8-0.3s1.2,0.1,1.8,0.3s1,0.5,1.4,0.9c0.4,0.4,0.7,0.9,0.9,1.4C107,7,107.1,7.6,107.1,8.3z M106.2,8.3
			c0-0.5-0.1-1-0.2-1.4s-0.4-0.8-0.7-1.2c-0.3-0.3-0.7-0.6-1.1-0.8c-0.4-0.2-0.9-0.3-1.5-0.3s-1,0.1-1.5,0.3
			c-0.4,0.2-0.8,0.5-1.1,0.8c-0.3,0.3-0.5,0.7-0.7,1.2s-0.2,0.9-0.2,1.4s0.1,1,0.2,1.4s0.4,0.8,0.7,1.2c0.3,0.3,0.7,0.6,1.1,0.8
			c0.4,0.2,0.9,0.3,1.5,0.3s1-0.1,1.5-0.3c0.4-0.2,0.8-0.5,1.1-0.8c0.3-0.3,0.5-0.7,0.7-1.2S106.2,8.8,106.2,8.3z"/>
		<path d="M113.1,11L113.1,11l2.9-7h1.3v8.5h-0.9V5.1h0l-3.1,7.4h-0.5l-3.1-7.4h0v7.4h-0.9V4h1.3L113.1,11z"/>
	</g>
</g>
<g transform="translate(492.5,327.5)">
	<g class="st2">
		<path d="M4.5,11.4L4.5,11.4L7.3,4h0.9l-3.3,8.5H4L0.8,4h0.9L4.5,11.4z"/>
		<path d="M10.1,4.7c0,0.2-0.1,0.3-0.2,0.4C9.8,5.2,9.6,5.3,9.5,5.3c-0.1,0-0.3-0.1-0.4-0.2C9,5,8.9,4.9,8.9,4.7S9,4.4,9.1,4.3
			c0.1-0.1,0.3-0.2,0.4-0.2c0.1,0,0.3,0.1,0.4,0.2C10,4.4,10.1,4.6,10.1,4.7z M9.9,12.5H9.1V6.9h0.8V12.5z"/>
		<path d="M12.1,7.5c0-0.2,0-0.5,0-0.6h0.8c0,0.2,0,0.3,0,0.5c0,0.2,0,0.3,0,0.5h0C13,7.5,13.3,7.2,13.6,7c0.3-0.2,0.7-0.3,1.1-0.3
			c0.1,0,0.2,0,0.3,0s0.2,0,0.3,0l-0.1,0.8c0,0-0.1,0-0.2,0c-0.1,0-0.2,0-0.3,0c-0.2,0-0.4,0-0.6,0.1c-0.2,0.1-0.4,0.2-0.5,0.4
			c-0.1,0.2-0.3,0.4-0.4,0.7c-0.1,0.3-0.1,0.6-0.1,1v2.9h-0.8V8.1C12.1,8,12.1,7.8,12.1,7.5z"/>
		<path d="M18.8,7.6h-1.6v3.3c0,0.2,0,0.4,0.1,0.5c0,0.1,0.1,0.2,0.2,0.3c0.1,0.1,0.2,0.1,0.3,0.2c0.1,0,0.2,0,0.3,0
			c0.1,0,0.2,0,0.4,0c0.1,0,0.2-0.1,0.4-0.1l0,0.7c-0.1,0.1-0.3,0.1-0.5,0.1c-0.2,0-0.3,0-0.5,0c-0.2,0-0.3,0-0.5-0.1
			s-0.3-0.1-0.5-0.2c-0.1-0.1-0.3-0.3-0.4-0.5c-0.1-0.2-0.1-0.4-0.1-0.8V7.6h-1.2V6.9h1.2V5.3h0.8v1.6h1.6V7.6z"/>
		<path d="M24.1,12.5c0-0.2,0-0.3,0-0.5s0-0.3,0-0.5h0c-0.2,0.3-0.4,0.6-0.8,0.8c-0.4,0.2-0.7,0.3-1.1,0.3c-0.7,0-1.2-0.2-1.6-0.6
			c-0.4-0.4-0.5-1-0.5-1.7V6.9h0.8V10c0,0.3,0,0.6,0.1,0.8s0.1,0.4,0.2,0.6s0.3,0.3,0.5,0.4c0.2,0.1,0.4,0.1,0.7,0.1
			c0.2,0,0.4,0,0.6-0.1s0.4-0.2,0.5-0.4c0.2-0.2,0.3-0.4,0.4-0.7c0.1-0.3,0.1-0.6,0.1-1V6.9h0.8v4.4c0,0.2,0,0.3,0,0.6
			c0,0.2,0,0.5,0,0.6H24.1z"/>
		<path d="M30.6,8.9c0-0.5-0.1-0.8-0.4-1.1c-0.3-0.2-0.6-0.4-1.1-0.4c-0.3,0-0.6,0.1-0.9,0.2c-0.3,0.1-0.5,0.3-0.7,0.5l-0.5-0.5
			c0.2-0.2,0.5-0.4,0.9-0.6c0.4-0.2,0.8-0.2,1.3-0.2c0.3,0,0.6,0,0.9,0.1c0.3,0.1,0.5,0.2,0.7,0.4s0.4,0.4,0.5,0.6s0.2,0.6,0.2,0.9
			v2.5c0,0.2,0,0.4,0,0.7c0,0.2,0,0.4,0.1,0.6h-0.7c0-0.1,0-0.3-0.1-0.4c0-0.2,0-0.3,0-0.5h0c-0.3,0.4-0.5,0.6-0.9,0.8
			c-0.3,0.2-0.7,0.2-1.2,0.2c-0.2,0-0.4,0-0.7-0.1c-0.2-0.1-0.4-0.2-0.6-0.3c-0.2-0.1-0.3-0.3-0.5-0.5c-0.1-0.2-0.2-0.5-0.2-0.8
			c0-0.4,0.1-0.8,0.3-1c0.2-0.3,0.5-0.4,0.9-0.6c0.4-0.1,0.8-0.2,1.3-0.2c0.5,0,1-0.1,1.5-0.1V8.9z M30.3,9.7c-0.3,0-0.7,0-1,0
			c-0.3,0-0.6,0.1-0.9,0.2c-0.3,0.1-0.5,0.2-0.7,0.4c-0.2,0.2-0.3,0.4-0.3,0.6c0,0.2,0,0.4,0.1,0.5c0.1,0.1,0.2,0.2,0.3,0.3
			s0.3,0.1,0.4,0.2c0.2,0,0.3,0.1,0.5,0.1c0.3,0,0.5,0,0.8-0.1c0.2-0.1,0.4-0.2,0.6-0.4c0.2-0.2,0.3-0.4,0.3-0.6
			c0.1-0.2,0.1-0.5,0.1-0.7V9.7H30.3z"/>
		<path d="M34.3,12.5h-0.8V3.4h0.8V12.5z"/>
		<path d="M39.5,4h2.8c0.5,0,1.1,0.1,1.6,0.3c0.5,0.2,1,0.4,1.4,0.8c0.4,0.4,0.8,0.8,1,1.3c0.3,0.5,0.4,1.1,0.4,1.9
			c0,0.7-0.1,1.3-0.4,1.9c-0.3,0.5-0.6,1-1,1.3c-0.4,0.4-0.9,0.6-1.4,0.8s-1.1,0.3-1.6,0.3h-2.8V4z M40.4,11.7h1.7
			c0.6,0,1.2-0.1,1.7-0.3c0.5-0.2,0.9-0.5,1.2-0.8c0.3-0.3,0.5-0.7,0.7-1.1c0.2-0.4,0.2-0.8,0.2-1.3c0-0.4-0.1-0.9-0.2-1.3
			c-0.2-0.4-0.4-0.8-0.7-1.1c-0.3-0.3-0.7-0.6-1.2-0.8s-1-0.3-1.7-0.3h-1.7V11.7z"/>
		<path d="M57,8.3c0,0.6-0.1,1.2-0.3,1.8c-0.2,0.5-0.5,1-0.9,1.4c-0.4,0.4-0.9,0.7-1.4,0.9s-1.1,0.3-1.8,0.3s-1.2-0.1-1.8-0.3
			s-1-0.5-1.4-0.9c-0.4-0.4-0.7-0.9-0.9-1.4s-0.3-1.1-0.3-1.8s0.1-1.2,0.3-1.8s0.5-1,0.9-1.4c0.4-0.4,0.9-0.7,1.4-0.9
			s1.1-0.3,1.8-0.3s1.2,0.1,1.8,0.3s1,0.5,1.4,0.9c0.4,0.4,0.7,0.9,0.9,1.4C56.9,7,57,7.6,57,8.3z M56.1,8.3c0-0.5-0.1-1-0.2-1.4
			S55.4,6,55.1,5.7c-0.3-0.3-0.7-0.6-1.1-0.8c-0.4-0.2-0.9-0.3-1.5-0.3s-1,0.1-1.5,0.3c-0.4,0.2-0.8,0.5-1.1,0.8
			c-0.3,0.3-0.5,0.7-0.7,1.2S49,7.8,49,8.3s0.1,1,0.2,1.4s0.4,0.8,0.7,1.2c0.3,0.3,0.7,0.6,1.1,0.8c0.4,0.2,0.9,0.3,1.5,0.3
			s1-0.1,1.5-0.3c0.4-0.2,0.8-0.5,1.1-0.8c0.3-0.3,0.5-0.7,0.7-1.2S56.1,8.8,56.1,8.3z"/>
		<path d="M63,11L63,11l2.9-7h1.3v8.5h-0.9V5.1h0l-3.1,7.4h-0.5l-3.1-7.4h0v7.4h-0.9V4h1.3L63,11z"/>
		<path d="M75.9,8.9c0-0.5-0.1-0.8-0.4-1.1c-0.3-0.2-0.6-0.4-1.1-0.4c-0.3,0-0.6,0.1-0.9,0.2c-0.3,0.1-0.5,0.3-0.7,0.5l-0.5-0.5
			c0.2-0.2,0.5-0.4,0.9-0.6c0.4-0.2,0.8-0.2,1.3-0.2c0.3,0,0.6,0,0.9,0.1C75.6,7,75.8,7.1,76,7.2s0.4,0.4,0.5,0.6s0.2,0.6,0.2,0.9
			v2.5c0,0.2,0,0.4,0,0.7c0,0.2,0,0.4,0.1,0.6H76c0-0.1,0-0.3-0.1-0.4c0-0.2,0-0.3,0-0.5h0c-0.3,0.4-0.5,0.6-0.9,0.8
			c-0.3,0.2-0.7,0.2-1.2,0.2c-0.2,0-0.4,0-0.7-0.1c-0.2-0.1-0.4-0.2-0.6-0.3c-0.2-0.1-0.3-0.3-0.5-0.5C72,11.5,72,11.2,72,10.9
			c0-0.4,0.1-0.8,0.3-1c0.2-0.3,0.5-0.4,0.9-0.6c0.4-0.1,0.8-0.2,1.3-0.2c0.5,0,1-0.1,1.5-0.1V8.9z M75.7,9.7c-0.3,0-0.7,0-1,0
			c-0.3,0-0.6,0.1-0.9,0.2c-0.3,0.1-0.5,0.2-0.7,0.4c-0.2,0.2-0.3,0.4-0.3,0.6c0,0.2,0,0.4,0.1,0.5c0.1,0.1,0.2,0.2,0.3,0.3
			s0.3,0.1,0.4,0.2c0.2,0,0.3,0.1,0.5,0.1c0.3,0,0.5,0,0.8-0.1c0.2-0.1,0.4-0.2,0.6-0.4c0.2-0.2,0.3-0.4,0.3-0.6
			c0.1-0.2,0.1-0.5,0.1-0.7V9.7H75.7z"/>
		<path d="M81.2,7.6h-1.3v4.9H79V7.6h-1.2V6.9H79V5.3c0-0.6,0.2-1.1,0.5-1.5c0.3-0.4,0.8-0.6,1.4-0.6c0.1,0,0.2,0,0.3,0
			c0.1,0,0.2,0,0.3,0.1l-0.1,0.7c-0.1,0-0.2,0-0.3-0.1c-0.1,0-0.2,0-0.3,0c-0.2,0-0.4,0-0.5,0.1c-0.1,0.1-0.2,0.2-0.3,0.3
			s-0.1,0.3-0.2,0.5s0,0.4,0,0.6v1.4h1.3V7.6z"/>
		<path d="M84.7,7.6h-1.6v3.3c0,0.2,0,0.4,0.1,0.5c0,0.1,0.1,0.2,0.2,0.3c0.1,0.1,0.2,0.1,0.3,0.2c0.1,0,0.2,0,0.3,0
			c0.1,0,0.2,0,0.4,0s0.2-0.1,0.4-0.1l0,0.7c-0.1,0.1-0.3,0.1-0.5,0.1c-0.2,0-0.3,0-0.5,0c-0.2,0-0.3,0-0.5-0.1s-0.3-0.1-0.5-0.2
			c-0.1-0.1-0.3-0.3-0.4-0.5c-0.1-0.2-0.1-0.4-0.1-0.8V7.6h-1.2V6.9h1.2V5.3h0.8v1.6h1.6V7.6z"/>
		<path d="M91.1,9.5c0,0.1,0,0.1,0,0.2s0,0.1,0,0.2h-4.7c0,0.3,0.1,0.5,0.2,0.8c0.1,0.2,0.2,0.5,0.4,0.6c0.2,0.2,0.4,0.3,0.6,0.4
			c0.2,0.1,0.5,0.2,0.8,0.2c0.4,0,0.8-0.1,1.1-0.3s0.5-0.4,0.7-0.7l0.6,0.5c-0.3,0.4-0.7,0.7-1.1,0.9c-0.4,0.2-0.8,0.3-1.3,0.3
			c-0.4,0-0.8-0.1-1.2-0.2c-0.4-0.1-0.7-0.4-0.9-0.6c-0.3-0.3-0.5-0.6-0.6-0.9c-0.1-0.4-0.2-0.8-0.2-1.2c0-0.4,0.1-0.8,0.2-1.2
			c0.1-0.4,0.3-0.7,0.6-0.9c0.3-0.3,0.6-0.5,0.9-0.6c0.3-0.1,0.7-0.2,1.1-0.2c0.4,0,0.8,0.1,1.2,0.2c0.3,0.1,0.6,0.3,0.8,0.6
			c0.2,0.3,0.4,0.5,0.5,0.9C91,8.8,91.1,9.1,91.1,9.5z M90.3,9.3c0-0.5-0.2-1-0.5-1.3c-0.3-0.3-0.8-0.5-1.3-0.5
			c-0.3,0-0.5,0-0.8,0.2C87.4,7.7,87.2,7.8,87,8s-0.3,0.4-0.4,0.6c-0.1,0.2-0.2,0.4-0.2,0.7H90.3z"/>
		<path d="M92.8,7.5c0-0.2,0-0.5,0-0.6h0.8c0,0.2,0,0.3,0,0.5c0,0.2,0,0.3,0,0.5h0c0.2-0.3,0.4-0.6,0.7-0.8c0.3-0.2,0.7-0.3,1.1-0.3
			c0.1,0,0.2,0,0.3,0s0.2,0,0.3,0l-0.1,0.8c0,0-0.1,0-0.2,0c-0.1,0-0.2,0-0.3,0c-0.2,0-0.4,0-0.6,0.1S94.3,7.8,94.2,8
			c-0.1,0.2-0.3,0.4-0.4,0.7s-0.1,0.6-0.1,1v2.9h-0.8V8.1C92.8,8,92.8,7.8,92.8,7.5z"/>
		<path d="M101.2,4.7c0,0.2-0.1,0.3-0.2,0.4c-0.1,0.1-0.3,0.2-0.4,0.2s-0.3-0.1-0.4-0.2C100.1,5,100,4.9,100,4.7s0.1-0.3,0.2-0.4
			c0.1-0.1,0.3-0.2,0.4-0.2s0.3,0.1,0.4,0.2C101.1,4.4,101.2,4.6,101.2,4.7z M101,12.5h-0.8V6.9h0.8V12.5z"/>
		<path d="M103.9,6.9c0,0.2,0,0.3,0,0.5c0,0.2,0,0.3,0,0.5h0c0.2-0.3,0.4-0.6,0.8-0.8s0.7-0.3,1.1-0.3c0.7,0,1.2,0.2,1.6,0.6
			c0.4,0.4,0.5,1,0.5,1.7v3.4h-0.8V9.4c0-0.3,0-0.6-0.1-0.8S107,8.1,106.9,8c-0.1-0.2-0.3-0.3-0.5-0.4c-0.2-0.1-0.4-0.1-0.7-0.1
			c-0.2,0-0.4,0-0.6,0.1c-0.2,0.1-0.4,0.2-0.5,0.4s-0.3,0.4-0.4,0.7c-0.1,0.3-0.1,0.6-0.1,1v2.9h-0.8V8.1c0-0.2,0-0.3,0-0.6
			c0-0.2,0-0.5,0-0.6H103.9z"/>
		<path d="M114.2,8.2c-0.1-0.2-0.3-0.4-0.6-0.5c-0.3-0.1-0.5-0.2-0.8-0.2c-0.3,0-0.6,0.1-0.9,0.2c-0.3,0.1-0.5,0.3-0.7,0.5
			c-0.2,0.2-0.3,0.4-0.4,0.7c-0.1,0.3-0.1,0.6-0.1,0.9c0,0.3,0,0.6,0.1,0.9c0.1,0.3,0.2,0.5,0.4,0.7c0.2,0.2,0.4,0.4,0.7,0.5
			c0.3,0.1,0.6,0.2,0.9,0.2c0.4,0,0.7-0.1,0.9-0.2s0.5-0.3,0.6-0.5l0.6,0.5c-0.2,0.3-0.5,0.5-0.9,0.7c-0.3,0.2-0.8,0.3-1.3,0.3
			c-0.5,0-0.9-0.1-1.2-0.2c-0.4-0.1-0.7-0.4-0.9-0.6c-0.3-0.3-0.5-0.6-0.6-0.9c-0.1-0.4-0.2-0.8-0.2-1.2c0-0.4,0.1-0.8,0.2-1.2
			c0.1-0.4,0.3-0.7,0.6-0.9s0.6-0.5,0.9-0.6c0.4-0.1,0.8-0.2,1.2-0.2c0.4,0,0.8,0.1,1.1,0.2c0.4,0.2,0.7,0.4,0.9,0.7L114.2,8.2z"/>
		<path d="M116.1,7.5c0-0.2,0-0.5,0-0.6h0.8c0,0.2,0,0.3,0,0.5c0,0.2,0,0.3,0,0.5h0c0.2-0.3,0.4-0.6,0.7-0.8
			c0.3-0.2,0.7-0.3,1.1-0.3c0.1,0,0.2,0,0.3,0s0.2,0,0.3,0l-0.1,0.8c0,0-0.1,0-0.2,0c-0.1,0-0.2,0-0.3,0c-0.2,0-0.4,0-0.6,0.1
			s-0.4,0.2-0.5,0.4c-0.1,0.2-0.3,0.4-0.4,0.7s-0.1,0.6-0.1,1v2.9h-0.8V8.1C116.1,8,116.1,7.8,116.1,7.5z"/>
		<path d="M125.4,9.5c0,0.1,0,0.1,0,0.2s0,0.1,0,0.2h-4.7c0,0.3,0.1,0.5,0.2,0.8c0.1,0.2,0.2,0.5,0.4,0.6c0.2,0.2,0.4,0.3,0.6,0.4
			c0.2,0.1,0.5,0.2,0.8,0.2c0.4,0,0.8-0.1,1.1-0.3s0.5-0.4,0.7-0.7l0.6,0.5c-0.3,0.4-0.7,0.7-1.1,0.9c-0.4,0.2-0.8,0.3-1.3,0.3
			c-0.4,0-0.8-0.1-1.2-0.2c-0.4-0.1-0.7-0.4-0.9-0.6c-0.3-0.3-0.5-0.6-0.6-0.9c-0.1-0.4-0.2-0.8-0.2-1.2c0-0.4,0.1-0.8,0.2-1.2
			c0.1-0.4,0.3-0.7,0.6-0.9c0.3-0.3,0.6-0.5,0.9-0.6c0.3-0.1,0.7-0.2,1.1-0.2c0.4,0,0.8,0.1,1.2,0.2c0.3,0.1,0.6,0.3,0.8,0.6
			c0.2,0.3,0.4,0.5,0.5,0.9C125.3,8.8,125.4,9.1,125.4,9.5z M124.5,9.3c0-0.5-0.2-1-0.5-1.3c-0.3-0.3-0.8-0.5-1.3-0.5
			c-0.3,0-0.5,0-0.8,0.2c-0.2,0.1-0.4,0.2-0.6,0.4s-0.3,0.4-0.4,0.6c-0.1,0.2-0.2,0.4-0.2,0.7H124.5z"/>
		<path d="M128.6,7c0.3-0.2,0.7-0.3,1.1-0.3c0.2,0,0.3,0,0.5,0s0.3,0.1,0.5,0.2c0.2,0.1,0.3,0.2,0.4,0.4c0.1,0.2,0.2,0.3,0.3,0.6
			c0.2-0.4,0.5-0.7,0.8-0.9s0.7-0.3,1.2-0.3c0.7,0,1.2,0.2,1.6,0.6c0.4,0.4,0.5,1,0.5,1.7v3.4h-0.8V9.4c0-0.6-0.1-1.1-0.3-1.4
			s-0.6-0.5-1.1-0.5c-0.3,0-0.5,0.1-0.8,0.2c-0.2,0.1-0.4,0.3-0.5,0.5s-0.2,0.4-0.3,0.7c-0.1,0.2-0.1,0.5-0.1,0.8v3h-0.8V9.2
			c0-0.3,0-0.5-0.1-0.7c0-0.2-0.1-0.4-0.2-0.6c-0.1-0.2-0.2-0.3-0.4-0.4s-0.4-0.1-0.7-0.1c-0.2,0-0.4,0-0.6,0.1
			c-0.2,0.1-0.4,0.2-0.5,0.4s-0.3,0.4-0.4,0.7c-0.1,0.3-0.1,0.6-0.1,1v2.9h-0.8V8.1c0-0.2,0-0.3,0-0.6c0-0.2,0-0.5,0-0.6h0.8
			c0,0.2,0,0.3,0,0.5c0,0.2,0,0.3,0,0.5h0C128.1,7.5,128.3,7.2,128.6,7z"/>
		<path d="M142.8,9.5c0,0.1,0,0.1,0,0.2s0,0.1,0,0.2h-4.7c0,0.3,0.1,0.5,0.2,0.8c0.1,0.2,0.2,0.5,0.4,0.6c0.2,0.2,0.4,0.3,0.6,0.4
			c0.2,0.1,0.5,0.2,0.8,0.2c0.4,0,0.8-0.1,1.1-0.3s0.5-0.4,0.7-0.7l0.6,0.5c-0.3,0.4-0.7,0.7-1.1,0.9c-0.4,0.2-0.8,0.3-1.3,0.3
			c-0.4,0-0.8-0.1-1.2-0.2c-0.4-0.1-0.7-0.4-0.9-0.6c-0.3-0.3-0.5-0.6-0.6-0.9c-0.1-0.4-0.2-0.8-0.2-1.2c0-0.4,0.1-0.8,0.2-1.2
			c0.1-0.4,0.3-0.7,0.6-0.9c0.3-0.3,0.6-0.5,0.9-0.6c0.3-0.1,0.7-0.2,1.1-0.2c0.4,0,0.8,0.1,1.2,0.2c0.3,0.1,0.6,0.3,0.8,0.6
			c0.2,0.3,0.4,0.5,0.5,0.9C142.8,8.8,142.8,9.1,142.8,9.5z M142,9.3c0-0.5-0.2-1-0.5-1.3c-0.3-0.3-0.8-0.5-1.3-0.5
			c-0.3,0-0.5,0-0.8,0.2c-0.2,0.1-0.4,0.2-0.6,0.4s-0.3,0.4-0.4,0.6c-0.1,0.2-0.2,0.4-0.2,0.7H142z"/>
		<path d="M145.3,6.9c0,0.2,0,0.3,0,0.5c0,0.2,0,0.3,0,0.5h0c0.2-0.3,0.4-0.6,0.8-0.8s0.7-0.3,1.1-0.3c0.7,0,1.2,0.2,1.6,0.6
			c0.4,0.4,0.5,1,0.5,1.7v3.4h-0.8V9.4c0-0.3,0-0.6-0.1-0.8s-0.1-0.4-0.2-0.6c-0.1-0.2-0.3-0.3-0.5-0.4c-0.2-0.1-0.4-0.1-0.7-0.1
			c-0.2,0-0.4,0-0.6,0.1c-0.2,0.1-0.4,0.2-0.5,0.4s-0.3,0.4-0.4,0.7c-0.1,0.3-0.1,0.6-0.1,1v2.9h-0.8V8.1c0-0.2,0-0.3,0-0.6
			c0-0.2,0-0.5,0-0.6H145.3z"/>
		<path d="M154.1,7.6h-1.6v3.3c0,0.2,0,0.4,0.1,0.5c0,0.1,0.1,0.2,0.2,0.3c0.1,0.1,0.2,0.1,0.3,0.2c0.1,0,0.2,0,0.3,0
			c0.1,0,0.2,0,0.4,0s0.2-0.1,0.4-0.1l0,0.7c-0.1,0.1-0.3,0.1-0.5,0.1c-0.2,0-0.3,0-0.5,0c-0.2,0-0.3,0-0.5-0.1s-0.3-0.1-0.5-0.2
			c-0.1-0.1-0.3-0.3-0.4-0.5c-0.1-0.2-0.1-0.4-0.1-0.8V7.6h-1.2V6.9h1.2V5.3h0.8v1.6h1.6V7.6z"/>
	</g>
</g>
</svg>
