<?xml version="1.0" encoding="UTF-8" standalone="no"?>
<svg width="562px" height="385px" viewBox="0 0 562 385" version="1.1" xmlns="http://www.w3.org/2000/svg" xmlns:xlink="http://www.w3.org/1999/xlink" xmlns:sketch="http://www.bohemiancoding.com/sketch/ns">
    <!-- Generator: Sketch 3.3.2 (12043) - http://www.bohemiancoding.com/sketch -->
    <title>potayto-potahto</title>
    <desc>Created with Sketch.</desc>
    <defs>
        <filter x="-50%" y="-50%" width="200%" height="200%" filterUnits="objectBoundingBox" id="filter-1">
            <feGaussianBlur stdDeviation="2" in="SourceGraphic" result="blur"></feGaussianBlur>
        </filter>
        <filter x="-50%" y="-50%" width="200%" height="200%" filterUnits="objectBoundingBox" id="filter-2">
            <feGaussianBlur stdDeviation="2" in="SourceGraphic" result="blur"></feGaussianBlur>
        </filter>
    </defs>
    <g id="Page-1" stroke="none" stroke-width="1" fill="none" fill-rule="evenodd" sketch:type="MSPage">
        <g id="potayto-potahto" sketch:type="MSArtboardGroup">
            <path d="M406,301 C406,301 404,289 380,285 C356,281 338,287 338,293 C338,299 356,305 376,305 C396,305 406,301 406,301 Z" id="Path-20" fill="#D8D8D8" filter="url(#filter-1)" sketch:type="MSShapeGroup"></path>
            <path d="M218,287 C218,287 197,277 167,277 C137,277 112,286 112,289 C112,292 133,299 161,299 C189,299 218,287 218,287 Z" id="Path-19" fill="#D8D8D8" filter="url(#filter-2)" sketch:type="MSShapeGroup"></path>
            <path d="M103.026793,263.928398 C103.026793,263.928398 126.534928,292.47534 165.002786,290.436273 C203.470644,288.397205 254.761122,278.201869 254.761122,217.029849 C254.761122,155.85783 246.212709,96.7248779 175.688302,98.7639452 C105.163896,100.803013 73.1073474,164.014093 73.1073474,198.678244 C73.1073474,233.342394 103.026793,263.928398 103.026793,263.928398 Z" id="Path-1-Copy" fill="#CD9C71" sketch:type="MSShapeGroup"></path>
            <path d="M104.544257,229.411273 C104.544257,229.411273 103.394515,229.411273 102.819644,231.055461 C102.244773,232.699648 102.819644,233.247711 104.544257,232.699648 C106.268871,232.151586 107.418613,229.959336 106.843742,229.411273 C106.268871,228.863211 104.544257,229.411273 104.544257,229.411273 Z" id="Path-5" fill="#4D3916" sketch:type="MSShapeGroup"></path>
            <path d="M139.615431,216.64662 C139.615431,216.64662 138.860487,216.64662 138.483015,217.726227 C138.105543,218.805834 138.483015,219.165703 139.615431,218.805834 C140.747847,218.445965 141.502791,217.006489 141.125319,216.64662 C140.747847,216.286751 139.615431,216.64662 139.615431,216.64662 Z" id="Path-5-Copy" fill="#4D3916" sketch:type="MSShapeGroup"></path>
            <path d="M237.426015,223.735349 C237.426015,223.735349 237.44608,224.884917 239.10005,225.431005 C240.75402,225.977094 241.034053,224.267067 240.455976,222.552281 C239.877898,220.837495 237.923829,220.851867 237.385883,221.436215 C236.847937,222.020564 237.426015,223.735349 237.426015,223.735349 Z" id="Path-5-Copy-4" fill="#4D3916" sketch:type="MSShapeGroup"></path>
            <path d="M136.214472,136.477183 C136.214472,136.477183 136.234538,137.626751 137.888508,138.172839 C139.542478,138.718928 139.822511,137.008901 139.244433,135.294115 C138.666355,133.579329 136.712287,133.593701 136.17434,134.178049 C135.636394,134.762398 136.214472,136.477183 136.214472,136.477183 Z" id="Path-5-Copy-3" fill="#665634" sketch:type="MSShapeGroup"></path>
            <path d="M203.509986,122.641109 C203.509986,122.641109 203.530051,123.790676 205.184021,124.336765 C206.837991,124.882853 207.118024,123.172826 206.539947,121.458041 C205.961869,119.743255 204.0078,119.757626 203.469854,120.341975 C202.931908,120.926324 203.509986,122.641109 203.509986,122.641109 Z" id="Path-5-Copy-6" fill="#665634" sketch:type="MSShapeGroup"></path>
            <path d="M205.617394,214.226671 C205.617394,214.226671 204.554068,215.184094 205.391567,217.183415 C206.229066,219.182735 207.217117,219.210893 208.355719,217.267888 C209.494321,215.324884 208.732098,212.339982 207.744047,212.311824 C206.755997,212.283666 205.617394,214.226671 205.617394,214.226671 Z" id="Path-5-Copy-2" fill="#4D3916" sketch:type="MSShapeGroup"></path>
            <path d="M452.561898,226.453129 C452.561898,226.453129 426.916659,297.820485 390.585904,297.820485 C354.255149,297.820485 320.061498,269.273542 322.198601,236.648465 C324.335704,204.023388 339.295428,177.515513 341.43253,161.202975 C343.569632,144.890436 354.255151,85.7574842 407.68273,91.8746861 C461.110309,97.9918881 471.795827,134.6951 469.658724,177.515513 C456.836103,199.94525 452.561898,226.453129 452.561898,226.453129 Z" id="Path-10" fill="#E5C1A1" sketch:type="MSShapeGroup"></path>
            <path d="M392.615622,268.152231 C392.615622,268.152231 392.635688,269.301798 394.289658,269.847886 C395.943628,270.393975 396.223661,268.683948 395.645583,266.969162 C395.067505,265.254377 393.113436,265.268748 392.57549,265.853097 C392.037544,266.437445 392.615622,268.152231 392.615622,268.152231 Z" id="Path-5-Copy-9" fill="#4D3916" sketch:type="MSShapeGroup"></path>
            <path d="M408.988404,208.561726 C408.988404,208.561726 409.008469,209.711293 410.662439,210.257381 C412.316409,210.80347 412.596442,209.093443 412.018365,207.378657 C411.440287,205.663872 409.486218,205.678243 408.948272,206.262591 C408.410326,206.84694 408.988404,208.561726 408.988404,208.561726 Z" id="Path-5-Copy-8" fill="#665634" sketch:type="MSShapeGroup"></path>
            <path d="M362.738734,172.995877 C362.738734,172.995877 362.75108,173.703187 363.768741,174.039186 C364.786401,174.375185 364.958701,173.323034 364.603019,172.267955 C364.247338,171.212875 363.045031,171.221717 362.714042,171.581258 C362.383052,171.940798 362.738734,172.995877 362.738734,172.995877 Z" id="Path-5-Copy-10" fill="#665634" sketch:type="MSShapeGroup"></path>
            <path d="M381.206062,229.341572 C381.206062,229.341572 381.226128,230.491139 382.880098,231.037228 C384.534068,231.583316 384.8141,229.87329 384.236023,228.158504 C383.657945,226.443718 381.703876,226.45809 381.16593,227.042438 C380.627984,227.626787 381.206062,229.341572 381.206062,229.341572 Z" id="Path-5-Copy-7" fill="#665634" sketch:type="MSShapeGroup"></path>
            <path d="M344.664298,228.50368 C344.664298,228.50368 343.600972,229.461103 344.438471,231.460424 C345.27597,233.459744 346.26402,233.487902 347.402623,231.544897 C348.541225,229.601893 347.779002,226.616991 346.790951,226.588833 C345.8029,226.560675 344.664298,228.50368 344.664298,228.50368 Z" id="Path-5-Copy-5" fill="#4D3916" sketch:type="MSShapeGroup"></path>
        </g>
    </g>
</svg>