<?xml version="1.0" encoding="UTF-8" standalone="no"?>
<svg width="562px" height="385px" viewBox="0 0 562 385" version="1.1" xmlns="http://www.w3.org/2000/svg" xmlns:xlink="http://www.w3.org/1999/xlink" xmlns:sketch="http://www.bohemiancoding.com/sketch/ns">
    <!-- Generator: Sketch 3.3.2 (12043) - http://www.bohemiancoding.com/sketch -->
    <title>react-for-absolute-beginners</title>
    <desc>Created with Sketch.</desc>
    <defs></defs>
    <g id="Page-1" stroke="none" stroke-width="1" fill="none" fill-rule="evenodd" sketch:type="MSPage">
        <g id="react-for-absolute-beginners" sketch:type="MSArtboardGroup">
            <g id="backpack" sketch:type="MSLayerGroup" transform="translate(164.000000, 76.000000)">
                <path d="M14.625,124.3125 L219.375,124.3125 C227.448,124.3125 234,130.8645 234,138.9375 L234,204.75 C234,212.830312 227.448,219.375 219.375,219.375 L14.625,219.375 C6.552,219.375 0,212.830312 0,204.75 L0,138.9375 C0,130.8645 6.552,124.3125 14.625,124.3125 L14.625,124.3125 Z" id="Shape" fill="#3B5998" sketch:type="MSShapeGroup"></path>
                <path d="M117,14.625 C126.542812,14.625 134.564625,20.752875 137.592,29.25 L153.5625,29.25 C153.5625,13.0966875 137.197125,0 117,0 C96.8101875,0 80.4375,13.0966875 80.4375,29.25 L96.408,29.25 C99.435375,20.752875 107.4645,14.625 117,14.625 L117,14.625 Z" id="Shape" fill="#3B5998" sketch:type="MSShapeGroup"></path>
                <path d="M65.8125,29.25 L168.1875,29.25 C192.4065,29.25 212.0625,48.8986875 212.0625,73.125 L212.0625,219.375 C212.0625,227.455313 205.5105,234 197.4375,234 L36.5625,234 C28.4895,234 21.9375,227.455313 21.9375,219.375 L21.9375,73.125 C21.9375,48.8986875 41.578875,29.25 65.8125,29.25 L65.8125,29.25 Z" id="Shape" fill="#4990E2" sketch:type="MSShapeGroup"></path>
                <g id="Group" transform="translate(70.574733, 129.861210)" fill="#BFD7F4" sketch:type="MSShapeGroup">
                    <ellipse id="Oval" cx="46.3570647" cy="41.066508" rx="8.28715153" ry="8.30824405"></ellipse>
                    <path d="M46.5933342,26.2347141 C57.3160859,26.2347141 67.5033837,27.7505119 75.2523431,30.4249843 C83.8926239,33.4070406 89.1763417,37.8270713 89.1763417,41.2837023 C89.1763417,44.9611917 83.4727189,49.668615 74.2336483,52.7375806 C66.9042036,55.1721929 57.1043198,56.4983022 46.5933342,56.4983022 C35.5517856,56.4983022 25.6413694,55.1980341 18.3958621,52.7151212 C9.53983226,49.6804143 4.01032672,44.9330091 4.01032672,41.2837023 C4.01032672,37.8168535 9.09351031,33.4568133 17.5481273,30.501622 C25.300567,27.7920713 35.7369753,26.2347141 46.5933342,26.2347141 L46.5933342,26.2347141 Z M46.5933342,22.547896 C35.3469902,22.547896 24.5064533,24.1655586 16.3395334,27.019974 C6.56587571,30.4362172 0.336134631,35.7797035 0.336134631,41.2837023 C0.336134631,46.9709027 7.02662446,52.7150811 17.2084443,56.2040982 C24.8837818,58.8343066 35.1794484,60.1851204 46.5933342,60.1851204 C57.4707688,60.1851204 67.6518103,58.8074332 75.3883063,56.2376112 C85.9745222,52.7211609 92.8505338,47.0461192 92.8505338,41.2837023 C92.8505338,35.7606625 86.4184597,30.379988 76.4473852,26.9386295 C68.2900943,24.1232256 57.7026974,22.547896 46.5933342,22.547896 L46.5933342,22.547896 Z" id="Shape"></path>
                    <path d="M33.3933945,33.6910282 C38.7499491,24.3790208 45.1488337,16.289067 51.3307501,10.8954528 C58.2243326,4.88101882 64.6838684,2.50007374 67.6724729,4.22790426 C70.8508825,6.06545046 72.0689616,13.3697199 70.1052471,22.9260555 C68.5473599,30.5073281 64.7976372,39.6804053 59.5469081,48.808602 C54.0310237,58.3976977 47.9568124,66.3546896 42.1918118,71.4067474 C35.145041,77.5822941 28.2798531,80.013057 25.1246088,78.188904 C22.1282877,76.4564831 20.9005444,69.8647966 22.5706878,61.0464013 C24.1020435,52.9606787 27.9698879,43.1195084 33.3933979,33.6910222 L33.3933945,33.6910282 Z M30.2112509,31.8479666 C24.5924934,41.6158803 20.5745218,51.8390274 18.9610997,60.3580691 C17.0301737,70.553403 18.5352568,78.6341119 23.2903121,81.3834022 C28.2028596,84.2235115 36.5078049,81.2829725 44.6086936,74.1836333 C50.7161014,68.8315129 57.0268429,60.5646752 62.7290596,50.65165 C68.1632411,41.204528 72.0591325,31.6738733 73.7037373,23.6705997 C75.9540359,12.7196145 74.4851881,3.91159821 69.5067186,1.03337643 C64.7362634,-1.72461248 56.8744389,1.17320755 48.9199459,8.11325257 C42.4118755,13.7914305 35.7612814,22.1996145 30.2112543,31.8479606 L30.2112509,31.8479666 Z" id="Shape"></path>
                    <path d="M33.3843996,48.7402665 C28.0124279,39.4372383 24.2170996,29.8392273 22.643546,21.7764057 C20.8889614,12.7862624 22.0571468,5.98831005 25.0418317,4.25609232 C28.2182659,2.41247884 35.1404247,5.00299713 42.4185974,11.4819362 C48.1922726,16.6213519 54.2466078,24.4593438 59.5127359,33.578999 C65.0445631,43.158707 68.8872217,52.4083772 70.3739655,59.9385398 C72.1912033,69.1422785 70.8635233,76.3172927 67.7123955,78.1461473 C64.7177993,79.8841707 58.4065353,77.6579772 51.6193312,71.802556 C45.3966368,66.4341653 38.8237417,58.159683 33.3843877,48.7402458 L33.3843996,48.7402665 Z M30.2053315,50.5886643 C35.8404075,60.3470371 42.6682278,68.9424395 49.2240002,74.5981805 C57.0692491,81.3663926 64.802445,84.0941489 69.5519858,81.3375792 C74.4607801,78.4886085 76.0676383,69.8048668 73.9781041,59.2220322 C72.4029557,51.2441121 68.4105784,41.6340539 62.6918063,31.730605 C57.2417686,22.292463 50.951564,14.1491127 44.8568783,8.72395065 C36.5182773,1.3010316 28.1747632,-1.8214085 23.2022359,1.06466364 C18.4352536,3.83127095 17.0127859,12.1089532 19.0378453,22.4849557 C20.6945098,30.9736336 24.6392371,40.94946 30.2053195,50.5886436 L30.2053315,50.5886643 Z" id="Shape"></path>
                </g>
                <path d="M43.875,29.25 L190.125,29.25 C206.278312,29.25 219.375,42.3466875 219.375,58.5 L219.375,87.75 C219.375,103.903312 206.278312,117.007313 190.125,117.007313 L43.875,117.007313 C27.7216875,117.007313 14.625,103.903313 14.625,87.75 L14.625,58.5 C14.625,42.3466875 27.7216875,29.25 43.875,29.25 L43.875,29.25 Z" id="Shape" fill="#3B5998" sketch:type="MSShapeGroup"></path>
                <path d="M69.6954375,197.4375 C75.099375,197.4375 80.4375,182.8125 80.4375,182.8125 L80.4375,29.25 L58.5,29.25 L58.5,182.8125 C58.4999993,182.8125 64.1379375,197.4375 69.6954375,197.4375 Z M153.5625,182.8125 C153.562499,182.8125 159.200437,197.4375 164.757937,197.4375 C170.161875,197.4375 175.5,182.8125 175.5,182.8125 L175.5,29.25 L153.5625,29.25 L153.5625,182.8125 Z" id="Shape" fill="#EFC75E" sketch:type="MSShapeGroup"></path>
                <path d="M51.1875,168.1875 L87.75,168.1875 L87.75,146.25 L51.1875,146.25 L51.1875,168.1875 L51.1875,168.1875 Z M146.25,146.25 L146.25,168.1875 L182.8125,168.1875 L182.8125,146.25 L146.25,146.25 L146.25,146.25 Z" id="Shape" fill="#E4E7E7" sketch:type="MSShapeGroup"></path>
            </g>
        </g>
    </g>
</svg>