<?xml version="1.0" encoding="UTF-8" standalone="no"?>
<svg width="562px" height="385px" viewBox="0 0 562 385" version="1.1" xmlns="http://www.w3.org/2000/svg" xmlns:xlink="http://www.w3.org/1999/xlink" xmlns:sketch="http://www.bohemiancoding.com/sketch/ns">
    <!-- Generator: Sketch 3.3.2 (12043) - http://www.bohemiancoding.com/sketch -->
    <title>the-react-philosophy</title>
    <desc>Created with Sketch.</desc>
    <defs></defs>
    <g id="Page-1" stroke="none" stroke-width="1" fill="none" fill-rule="evenodd" sketch:type="MSPage">
        <g id="the-react-philosophy" sketch:type="MSArtboardGroup">
            <g id="React-Atom" sketch:type="MSLayerGroup" transform="translate(126.000000, 37.000000)">
                <polygon id="Star-1" fill="#FCF3C5" sketch:type="MSShapeGroup" points="155.5 200.199044 144.166246 310.352656 148.991767 199.722702 121.740298 307.052241 142.622246 198.303831 100.03388 300.521752 136.527191 195.97267 79.5096255 290.900377 130.83651 192.778905 60.6049739 278.393178 125.671487 188.790604 43.7228451 263.266724 121.142208 184.092772 29.2230523 245.843409 117.345205 178.785535 17.4146334 226.494582 114.361406 172.982007 8.54926428 205.632628 112.254404 166.80588 2.81589501 183.702184 111.069107 160.388788 0.336722353 161.17066 110.830777 153.8675 1.16458557 138.518275 111.544495 147.381006 5.2818402 116.227827 113.195047 141.067555 12.6007341 94.7743965 115.747256 135.061705 22.9652778 74.6152269 119.146726 129.491463 36.1545689 56.1799758 123.321003 124.475547 51.8875008 39.8615587 128.181119 120.120864 69.8287531 26.0077741 133.62349 116.520225 89.5959394 14.9138915 139.532121 113.750373 110.767756 6.81635771 145.781079 111.870342 132.892963 1.88775763 152.237179 110.920201 155.5 0.233135811 158.762821 110.920201 178.107037 1.88775763 165.218921 111.870342 200.232244 6.81635771 171.467879 113.750373 221.404061 14.9138915 177.37651 116.520225 241.171247 26.0077741 182.818881 120.120864 259.112499 39.8615587 187.678997 124.475547 274.845431 56.1799758 191.853274 129.491463 288.034722 74.6152269 195.252744 135.061705 298.399266 94.7743965 197.804953 141.067555 305.71816 116.227827 199.455505 147.381006 309.835414 138.518275 200.169223 153.8675 310.663278 161.17066 199.930893 160.388788 308.184105 183.702184 198.745596 166.80588 302.450736 205.632628 196.638594 172.982007 293.585367 226.494582 193.654795 178.785535 281.776948 245.843409 189.857792 184.092772 267.277155 263.266724 185.328513 188.790604 250.395026 278.393178 180.16349 192.778905 231.490375 290.900377 174.472809 195.97267 210.96612 300.521752 168.377754 198.303831 189.259702 307.052241 162.008233 199.722702 166.833754 310.352656 "></polygon>
                <ellipse id="Oval" stroke="#BD6947" fill="#D6C0E8" sketch:type="MSShapeGroup" cx="154.962852" cy="154.82131" rx="19.5463194" ry="19.528959"></ellipse>
                <path d="M154.962852,119.447882 C180.253849,119.447882 204.281909,123.010844 222.558833,129.29733 C242.938053,136.306808 255.400385,146.69632 255.400385,154.82131 C255.400385,163.46544 241.947653,174.530483 220.156109,181.744246 C202.868666,187.466928 179.754371,190.584017 154.962852,190.584017 C128.91993,190.584017 105.544931,187.527669 88.4554644,181.691454 C67.567372,174.558218 54.5253176,163.399195 54.5253176,154.82131 C54.5253176,146.672302 66.5146639,136.423801 86.4559722,129.477471 C104.741105,123.108531 129.356724,119.447882 154.962852,119.447882 L154.962852,119.447882 Z M154.962852,110.781825 C128.436894,110.781825 102.868085,114.584225 83.6053471,121.293676 C60.5529106,129.323733 45.85926,141.883875 45.85926,154.82131 C45.85926,168.18937 61.6396462,181.69136 85.6547858,189.892475 C103.758063,196.074917 128.041725,199.250075 154.962852,199.250075 C180.618689,199.250075 204.631992,196.01175 222.87952,189.971249 C247.84848,181.70565 264.066443,168.36617 264.066443,154.82131 C264.066443,141.839118 248.895564,129.191564 225.377494,121.102472 C206.137468,114.484719 181.165722,110.781825 154.962852,110.781825 L154.962852,110.781825 Z" id="Shape" stroke="#BD6947" fill="#D6C0E8" sketch:type="MSShapeGroup"></path>
                <path d="M124.11962,137.248643 C136.753747,115.360286 151.846345,96.3444295 166.427195,83.6664595 C182.686601,69.5292201 197.922252,63.9326851 204.971263,67.9940405 C212.467953,72.3132882 215.34095,89.4823528 210.709275,111.945016 C207.034797,129.765191 198.19059,151.326985 185.806067,172.783285 C172.796139,195.322952 158.469326,214.026275 144.871826,225.901399 C128.251105,240.417342 112.058671,246.130976 104.616619,241.84321 C97.5494078,237.771065 94.6536165,222.276963 98.5928656,201.548867 C102.204766,182.542957 111.327578,159.410775 124.119628,137.248629 L124.11962,137.248643 Z M116.614123,132.916431 C103.361556,155.876419 93.8846499,179.906457 90.0791851,199.930907 C85.5248462,223.895568 89.0747794,242.889694 100.290193,249.352044 C111.877072,256.027868 131.46536,249.115979 150.572354,232.428613 C164.977466,219.848176 179.862167,200.416545 193.311583,177.115465 C206.128803,154.909514 215.317767,132.507215 219.19678,113.695105 C224.504401,87.9542461 221.039933,67.2505467 209.297568,60.485137 C198.045833,54.0023408 179.502702,60.8138173 160.741001,77.1267534 C145.390875,90.4736052 129.704588,110.237478 116.614131,132.916417 L116.614123,132.916431 Z" id="Shape" stroke="#BD6947" fill="#D6C0E8" sketch:type="MSShapeGroup"></path>
                <path d="M124.149129,172.83463 C111.478639,150.967379 102.526866,128.406756 98.8154361,109.454675 C94.6770212,88.3228765 97.4323377,72.3439366 104.472103,68.2722689 C111.964135,63.9387597 128.290942,70.0279074 145.457454,85.25699 C159.075414,97.3374534 173.355347,115.76106 185.776192,137.197283 C198.823722,159.714884 207.88713,181.456714 211.393808,199.156752 C215.679998,220.790618 212.548493,237.655861 205.11615,241.954679 C198.053008,246.039993 183.167075,240.80721 167.158575,227.043738 C152.481545,214.425057 136.978522,194.975457 124.149101,172.834581 L124.149129,172.83463 Z M116.650886,177.179385 C129.941942,200.116946 146.04624,220.320886 161.508877,233.614999 C180.012912,249.524033 198.252655,255.935766 209.455062,249.456305 C221.033089,242.759652 224.823072,222.348066 219.894635,197.472564 C216.179443,178.720049 206.762905,156.131108 193.274441,132.852537 C180.419821,110.667695 165.58356,91.5263269 151.208455,78.7742018 C131.540786,61.3262453 111.861528,53.9867877 100.133179,60.7706501 C88.889634,67.2737042 85.5345598,86.7308261 90.3109245,111.120159 C94.2183821,131.073237 103.522532,154.521935 116.650858,177.179336 L116.650886,177.179385 Z" id="Shape" stroke="#BD6947" fill="#D6C0E8" sketch:type="MSShapeGroup"></path>
            </g>
            <g id="React-Atom-Copy-4" sketch:type="MSLayerGroup" transform="translate(409.625000, 56.000000)">
                <polygon id="Star-1" fill="#FCF3C5" sketch:type="MSShapeGroup" points="59.875 77.0862877 55.5109582 119.500741 57.3690164 76.9028734 46.8758866 118.229922 54.9164435 76.3565395 38.5178686 115.715369 52.5695536 75.4589301 30.6150407 112.010676 50.3783666 74.2291764 23.335838 107.194801 48.3895839 72.6934883 16.8354042 101.370386 46.6455929 70.8845964 11.2522846 94.6615699 45.1835637 68.8410541 6.70547377 87.2113381 44.034657 66.6064159 3.29187909 79.1784797 43.2233597 64.2283092 1.08425539 70.7342012 42.7669632 61.7574193 0.129654346 62.0584776 42.6751948 59.246409 0.448421616 53.336217 42.9500104 56.7487959 2.03376323 44.7533192 43.5855527 54.3178124 4.85189038 36.4927138 44.5682764 52.0052708 8.84273959 28.7304612 45.8772363 49.8604588 13.9212528 21.6320003 47.4845342 47.9290893 19.9791904 15.3486227 49.3559133 46.2523262 26.8874379 10.0142474 51.4514886 44.8659067 34.498758 5.74256754 53.7265964 43.79938 42.6509287 2.62462648 56.1327467 43.0754772 51.1702005 0.726877738 58.6186566 42.7096271 59.875 0.0897685317 61.1313434 42.7096271 68.5797995 0.726877738 63.6172533 43.0754772 77.0990713 2.62462648 66.0234036 43.79938 85.251242 5.74256754 68.2985114 44.8659067 92.8625621 10.0142474 70.3940867 46.2523262 99.7708096 15.3486227 72.2654658 47.9290893 105.828747 21.6320003 73.8727637 49.8604588 110.90726 28.7304612 75.1817236 52.0052708 114.89811 36.4927138 76.1644473 54.3178124 117.716237 44.7533192 76.7999896 56.7487959 119.301578 53.336217 77.0748052 59.246409 119.620346 62.0584776 76.9830368 61.7574193 118.665745 70.7342012 76.5266403 64.2283092 116.458121 79.1784797 75.715343 66.6064159 113.044526 87.2113381 74.5664363 68.8410541 108.497715 94.6615699 73.1044071 70.8845964 102.914596 101.370386 71.3604161 72.6934883 96.414162 107.194801 69.3716334 74.2291764 89.1349593 112.010676 67.1804464 75.4589301 81.2321314 115.715369 64.8335565 76.3565395 72.8741134 118.229922 62.3809836 76.9028734 64.2390418 119.500741 "></polygon>
                <ellipse id="Oval" stroke="#BD6947" fill="#D6C0E8" sketch:type="MSShapeGroup" cx="59.6681719" cy="59.6136717" rx="7.5262757" ry="7.51959111"></ellipse>
                <path d="M59.6681719,45.9931958 C69.4064258,45.9931958 78.6583879,47.3651078 85.695885,49.7857082 C93.5428678,52.4846953 98.3414668,56.4851584 98.3414668,59.6136717 C98.3414668,62.9420785 93.1615159,67.2026537 84.7707205,69.9803004 C78.1142209,72.1838092 69.2141027,73.3840387 59.6681719,73.3840387 C49.6403912,73.3840387 40.639889,72.2071975 34.0596201,69.959973 C26.0166971,67.213333 20.9948771,62.9165712 20.9948771,59.6136717 C20.9948771,56.4759106 25.6113537,52.5297434 33.2897192,49.8550711 C40.3303771,47.4027222 49.8085779,45.9931958 59.6681719,45.9931958 L59.6681719,45.9931958 Z M59.6681719,42.6563457 C49.4543988,42.6563457 39.6091741,44.120453 32.192091,46.7039156 C23.3157911,49.7958748 17.658027,54.6321353 17.658027,59.6136717 C17.658027,64.7610195 23.7342367,69.9599367 32.9812238,73.1177618 C39.9518585,75.4983 49.3022396,76.7208889 59.6681719,76.7208889 C69.5469066,76.7208889 78.7931868,75.4739775 85.8193649,73.1480936 C95.4336188,69.9654393 101.678317,64.8290961 101.678317,59.6136717 C101.678317,54.6149017 95.8367967,49.7449831 86.7812056,46.6302926 C79.3728675,44.0821386 69.757541,42.6563457 59.6681719,42.6563457 L59.6681719,42.6563457 Z" id="Shape" stroke="#BD6947" fill="#D6C0E8" sketch:type="MSShapeGroup"></path>
                <path d="M47.7920402,52.8473472 C52.6567886,44.4192741 58.4681665,37.0972522 64.0824969,32.2156223 C70.3431526,26.7721032 76.2096132,24.6171673 78.9238222,26.180985 C81.8104096,27.8441037 82.916652,34.4550217 81.1332339,43.1042303 C79.7183824,49.9658571 76.3129364,58.2681878 71.5442973,66.5298983 C66.5348479,75.2087573 61.0183337,82.4104386 55.7826404,86.9829341 C49.3828612,92.5722723 43.1479931,94.7722971 40.2824441,93.1213003 C37.561227,91.553328 36.4462076,85.5873517 37.9630086,77.606035 C39.3537646,70.2878427 42.866487,61.380837 47.7920433,52.8473418 L47.7920402,52.8473472 Z M44.9020617,51.1792366 C39.7991843,60.0199395 36.1501184,69.2726632 34.6848309,76.9830421 C32.9311908,86.2105927 34.2980863,93.5242472 38.6165614,96.0125635 C43.0780687,98.5830779 50.6205044,95.921667 57.9776188,89.4962265 C63.5242816,84.6521515 69.2556091,77.1700364 74.434283,68.1979965 C79.369531,59.6476345 82.9077254,51.021669 84.4013326,43.7780993 C86.4450225,33.8666269 85.1110353,25.8947041 80.5896586,23.289695 C76.2571976,20.7935058 69.117198,23.4162528 61.8930382,29.69752 C55.9824992,34.8367017 49.9425221,42.4467461 44.9020648,51.1792312 L44.9020617,51.1792366 Z" id="Shape" stroke="#BD6947" fill="#D6C0E8" sketch:type="MSShapeGroup"></path>
                <path d="M47.8034027,66.5496685 C42.9246528,58.1297223 39.4777885,49.4427943 38.0487089,42.1453291 C36.4552196,34.0085674 37.5161493,27.8559048 40.2267987,26.2881164 C43.111592,24.6195063 49.3982003,26.9641219 56.0081355,32.8280532 C61.2517069,37.4796143 66.7501699,44.5735916 71.5327941,52.8275713 C76.5567226,61.4979338 80.0465717,69.869587 81.3968118,76.6849553 C83.0472018,85.015037 81.8414213,91.5089692 78.9796108,93.1642213 C76.2599603,94.7372643 70.5281581,92.7223903 64.3641139,87.42279 C58.7127494,82.5639892 52.7433375,75.0749549 47.8033919,66.5496497 L47.8034027,66.5496685 Z M44.9162173,68.2226087 C50.0339149,77.0546763 56.2348463,84.8341676 62.1887075,89.9530421 C69.3136534,96.0787875 76.3368343,98.5476139 80.6503012,96.0527092 C85.1083999,93.4741746 86.5677261,85.6147297 84.6700402,76.0364615 C83.2395124,68.8158387 79.6136909,60.118007 74.4199816,51.1546346 C69.4703332,42.6124001 63.757657,35.2420503 58.2225482,30.3318671 C50.6495469,23.6135623 43.0720834,20.7875171 38.5561033,23.3996313 C34.2267964,25.9036208 32.934931,33.3955512 34.7740618,42.7866206 C36.2786214,50.469518 39.8611679,59.4983976 44.9162064,68.22259 L44.9162173,68.2226087 Z" id="Shape" stroke="#BD6947" fill="#D6C0E8" sketch:type="MSShapeGroup"></path>
            </g>
            <g id="React-Atom-Copy-5" sketch:type="MSLayerGroup" transform="translate(79.000000, 246.687500)">
                <polygon id="Star-1" fill="#FCF3C5" sketch:type="MSShapeGroup" points="47.5 61.1540487 44.0379209 94.8022583 45.5119546 61.0085426 37.187551 93.7940928 43.5662809 60.5751253 30.556973 91.7992491 41.7044475 59.8630344 24.2875062 88.8602438 39.9661364 58.8874468 18.5127734 85.0397167 38.3883964 57.6691557 13.355853 80.4190957 37.0048545 56.2341266 8.92665584 75.0968613 35.8449984 54.6129448 5.31958254 69.1864478 34.9335484 52.8401629 2.6115116 62.8138253 34.2899305 50.9535647 0.860160854 56.1148151 33.9278622 48.9933598 0.10285731 49.2321952 33.8550606 47.0013265 0.355741574 42.3126565 34.0730771 45.0199216 1.61342386 35.503677 34.5772652 43.0913752 3.84909884 28.9503783 35.356879 41.256791 7.015117 22.7924327 36.3953022 39.55527 11.0440002 17.1610859 37.6704029 38.0230771 15.8498797 12.1763604 39.1550043 36.6928684 21.3303265 7.9444969 40.8174649 35.5929949 27.3685345 4.55569032 42.622352 34.7468985 33.8358098 2.08216715 44.5311978 34.1726124 40.5943135 0.576646222 46.5033184 33.8823764 47.5 0.0712151191 48.4966816 33.8823764 54.4056865 0.576646222 50.4688022 34.1726124 61.1641902 2.08216715 52.377648 34.7468985 67.6314655 4.55569032 54.1825351 35.5929949 73.6696735 7.9444969 55.8449957 36.6928684 79.1501203 12.1763604 57.3295971 38.0230771 83.9559998 17.1610859 58.6046978 39.55527 87.984883 22.7924327 59.643121 41.256791 91.1509012 28.9503783 60.4227348 43.0913752 93.3865761 35.503677 60.9269229 45.0199216 94.6442584 42.3126565 61.1449394 47.0013265 94.8971427 49.2321952 61.0721378 48.9933598 94.1398391 56.1148151 60.7100695 50.9535647 92.3884884 62.8138253 60.0664516 52.8401629 89.6804175 69.1864478 59.1550016 54.6129448 86.0733442 75.0968613 57.9951455 56.2341266 81.644147 80.4190957 56.6116036 57.6691557 76.4872266 85.0397167 55.0338636 58.8874468 70.7124938 88.8602438 53.2955525 59.8630344 64.443027 91.7992491 51.4337191 60.5751253 57.812449 93.7940928 49.4880454 61.0085426 50.9620791 94.8022583 "></polygon>
                <ellipse id="Oval" stroke="#BD6947" fill="#D6C0E8" sketch:type="MSShapeGroup" cx="47.3359193" cy="47.2926832" rx="5.97074064" ry="5.96543762"></ellipse>
                <path d="M47.3359193,36.4872952 C55.0614651,36.4872952 62.4012263,37.5756596 67.9842094,39.4959689 C74.2093732,41.6371278 78.0161949,44.8107729 78.0161949,47.2926832 C78.0161949,49.933173 73.9068393,53.31317 67.2502585,55.516731 C61.9695281,57.2648173 54.9088915,58.2169827 47.3359193,58.2169827 C39.3806861,58.2169827 32.240413,57.2833717 27.0201579,55.5006049 C20.6395509,53.321642 16.6556436,49.9129375 16.6556436,47.2926832 C16.6556436,44.8034364 20.3179842,41.6728653 26.4093806,39.5509959 C31.9948712,37.6054998 39.5141119,36.4872952 47.3359193,36.4872952 L47.3359193,36.4872952 Z M47.3359193,33.8401072 C39.2331347,33.8401072 31.4227268,35.001612 25.5386108,37.051123 C18.4968698,39.5040343 14.0084556,43.3407336 14.0084556,47.2926832 C14.0084556,51.3761741 18.8288308,55.5005761 26.1646452,58.00574 C31.6945851,59.8942672 39.1124239,60.8641707 47.3359193,60.8641707 C55.1729113,60.8641707 62.5081649,59.8749717 68.0821684,58.0298029 C75.7093427,55.5049414 80.6633829,51.4301806 80.6633829,47.2926832 C80.6633829,43.3270619 76.0291915,39.4636609 68.8452153,36.9927164 C62.9680368,34.9712164 55.3400116,33.8401072 47.3359193,33.8401072 L47.3359193,33.8401072 Z" id="Shape" stroke="#BD6947" stroke-width="0.5" fill="#D6C0E8" sketch:type="MSShapeGroup"></path>
                <path d="M37.9143534,41.9248266 C41.7736527,35.2386726 46.3839317,29.4299704 50.837889,25.5572786 C55.8045887,21.2388293 60.4585658,19.5292768 62.6118005,20.7698837 C64.9017863,22.0892681 65.7793899,27.3338377 64.3645697,34.1954228 C63.2421405,39.6388846 60.5405341,46.2252847 56.7574801,52.77946 C52.7833866,59.6645674 48.4070288,65.3778009 44.2534516,69.0052505 C39.1763826,73.439381 34.2301407,75.1847034 31.956845,73.8749355 C29.7980506,72.6310327 28.9134841,67.8981078 30.1167918,61.5663743 C31.2201055,55.7607103 34.0068164,48.6946097 37.9143559,41.9248223 L37.9143534,41.9248266 Z M35.6216773,40.6014821 C31.5734656,47.6149833 28.6785908,54.9553487 27.5161498,61.072142 C26.124953,68.392537 27.2093378,74.1946011 30.6352679,76.1686308 C34.1746682,78.2078697 40.158229,76.0965208 45.9947706,70.9990941 C50.3950459,67.1561954 54.9418194,61.2204881 59.0501619,54.1027947 C62.9653899,47.3196265 65.7723083,40.4764806 66.9572158,34.7300161 C68.5785147,26.8670527 67.5202368,20.5427715 63.9333408,18.4761672 C60.4963154,16.4958919 54.8320151,18.576568 49.1009489,23.5596192 C44.4120035,27.6366318 39.6203725,33.6738278 35.6216798,40.6014778 L35.6216773,40.6014821 Z" id="Shape" stroke="#BD6947" stroke-width="0.5" fill="#D6C0E8" sketch:type="MSShapeGroup"></path>
                <path d="M37.9233675,52.7951441 C34.0529605,46.1154373 31.3184961,39.2239286 30.1847795,33.4347078 C28.9206335,26.9796568 29.7622897,22.0986301 31.9127004,20.8548731 C34.201263,19.5311324 39.1885514,21.3911614 44.4323413,26.043132 C48.5921683,29.7333057 52.9542058,35.3610956 56.7483544,41.909138 C60.7339344,48.7875049 63.5024995,55.4288999 64.5736711,60.8356639 C65.8829576,67.4440794 64.9263885,72.5958419 62.6560587,73.9089856 C60.4985071,75.1569111 55.9513572,73.5584725 51.0613012,69.3541966 C46.577964,65.4996156 41.8423137,59.5584194 37.9233589,52.7951292 L37.9233675,52.7951441 Z M35.6329072,54.12232 C39.6928761,61.1289708 44.6121954,67.3005922 49.3355091,71.3614948 C54.987867,76.2211676 60.5594928,78.1797355 63.9814498,76.2004791 C67.5181461,74.1548776 68.6758579,67.9198273 67.1703868,60.3212012 C66.0355213,54.5929409 63.1590867,47.6927822 59.0388163,40.5819648 C55.1121641,33.8052443 50.5801872,27.9582028 46.1890779,24.0628591 C40.1812689,18.7330974 34.16992,16.4911409 30.5873054,18.5633819 C27.1527821,20.5498453 26.1279202,26.4933392 27.5869384,33.9434568 C28.7805347,40.0384485 31.6226384,47.201234 35.6328986,54.1223052 L35.6329072,54.12232 Z" id="Shape" stroke="#BD6947" stroke-width="0.5" fill="#D6C0E8" sketch:type="MSShapeGroup"></path>
            </g>
            <g id="React-Atom-Copy-6" sketch:type="MSLayerGroup" transform="translate(409.625000, 246.687500)">
                <polygon id="Star-1" fill="#FCF3C5" sketch:type="MSShapeGroup" points="32.5 41.8422439 30.1312091 64.8647031 31.1397584 41.742687 25.4441138 64.1749056 29.808508 41.4461383 20.9074026 62.8100125 28.534622 40.9589182 16.6177674 60.7991142 27.3452512 40.291411 12.6666344 58.1850693 26.2657449 39.4578434 9.13821522 55.0235918 25.319111 38.4759814 6.10771189 51.382063 24.5255252 37.3667517 3.63971437 47.3380959 23.9019015 36.1537957 1.78682372 42.9778804 23.4615314 34.8629653 0.588531111 38.3943472 23.2138005 33.5217725 0.0703760544 33.6851862 23.1639888 32.1588024 0.24340213 28.950765 23.313158 30.8031042 1.10392159 24.2919895 23.6581288 29.4835725 2.63359395 19.8081536 24.1915488 28.2283307 4.7998169 15.5948223 24.9020489 27.0641321 7.55642116 11.7417956 25.7744862 26.0157896 10.8446545 8.33119393 26.7902661 25.1056468 14.5944339 5.43570841 27.9277391 24.3531018 18.7258394 3.11705127 29.1626619 23.7741937 23.1508172 1.42464068 30.4687143 23.3812611 27.7750566 0.394547415 31.81806 23.1826786 32.5 0.0487261341 33.18194 23.1826786 37.2249434 0.394547415 34.5312857 23.3812611 41.8491828 1.42464068 35.8373381 23.7741937 46.2741606 3.11705127 37.0722609 24.3531018 50.4055661 5.43570841 38.2097339 25.1056468 54.1553455 8.33119393 39.2255138 26.0157896 57.4435788 11.7417956 40.0979511 27.0641321 60.2001831 15.5948223 40.8084512 28.2283307 62.3664061 19.8081536 41.3418712 29.4835725 63.8960784 24.2919895 41.686842 30.8031042 64.7565979 28.950765 41.8360112 32.1588024 64.9296239 33.6851862 41.7861995 33.5217725 64.4114689 38.3943472 41.5384686 34.8629653 63.2131763 42.9778804 41.0980985 36.1537957 61.3602856 47.3380959 40.4744748 37.3667517 58.8922881 51.382063 39.680889 38.4759814 55.8617848 55.0235918 38.7342551 39.4578434 52.3333656 58.1850693 37.6547488 40.291411 48.3822326 60.7991142 36.465378 40.9589182 44.0925974 62.8100125 35.191492 41.4461383 39.5558862 64.1749056 33.8602416 41.742687 34.8687909 64.8647031 "></polygon>
                <ellipse id="Oval" stroke="#BD6947" fill="#D6C0E8" sketch:type="MSShapeGroup" cx="32.3877342" cy="32.3581516" rx="4.08524359" ry="4.08161522"></ellipse>
                <path d="M32.3877342,24.9649915 C37.673634,24.9649915 42.6955759,25.7096618 46.5155117,27.0235577 C50.7748343,28.4885611 53.3795018,30.6600025 53.3795018,32.3581516 C53.3795018,34.1648026 50.5678374,36.4774321 46.0133347,37.9851318 C42.4002034,39.1811908 37.5692416,39.8326724 32.3877342,39.8326724 C26.94468,39.8326724 22.05923,39.1938859 18.4874765,37.9740981 C14.121798,36.4832288 11.3959667,34.1509572 11.3959667,32.3581516 C11.3959667,30.6549828 13.9017786,28.5130131 18.0695762,27.0612077 C21.8912277,25.7300788 27.0359713,24.9649915 32.3877342,24.9649915 L32.3877342,24.9649915 Z M32.3877342,23.1537576 C26.8437238,23.1537576 21.4997604,23.9484714 17.4737864,25.3507684 C12.655753,27.0290761 9.58473281,29.6541862 9.58473281,32.3581516 C9.58473281,35.1521191 12.8828842,37.9740784 17.9021256,39.6881379 C21.6857687,40.9802881 26.7611322,41.6439063 32.3877342,41.6439063 C37.7498867,41.6439063 42.7687444,40.9670859 46.5825362,39.704602 C51.8011292,37.9770652 55.1907357,35.189071 55.1907357,32.3581516 C55.1907357,29.6448318 52.0199732,27.0014522 47.104621,25.310806 C43.0833936,23.9276744 37.8642185,23.1537576 32.3877342,23.1537576 L32.3877342,23.1537576 Z" id="Shape" stroke="#BD6947" stroke-width="0.5" fill="#D6C0E8" sketch:type="MSShapeGroup"></path>
                <path d="M25.9413997,28.6854077 C28.5819729,24.1106707 31.7363743,20.1362956 34.7838188,17.4865591 C38.182087,14.5318306 41.3663871,13.3621368 42.839653,14.2109731 C44.4064854,15.1137098 45.006951,18.7020995 44.0389161,23.3968682 C43.2709383,27.1213421 41.4224707,31.6278264 38.8340654,36.1122621 C36.1149487,40.823125 33.1205987,44.7321796 30.2786774,47.2141187 C26.8048933,50.2479975 23.4206226,51.4421655 21.8652098,50.5460085 C20.3881399,49.6949171 19.7829102,46.4566001 20.6062259,42.1243614 C21.3611248,38.1520649 23.2678218,33.3173645 25.9414014,28.6854047 L25.9413997,28.6854077 Z M24.3727266,27.7799614 C21.6028975,32.5786728 19.6221937,37.601028 18.8268393,41.7862024 C17.8749679,46.7948937 18.6169153,50.7647271 20.9609728,52.115379 C23.3826677,53.5106477 27.476683,52.0660405 31.4701062,48.5783275 C34.4808209,45.9489758 37.5917711,41.8877024 40.4027423,37.0177017 C43.0815826,32.3765866 45.0021056,27.6944341 45.8128319,23.7626426 C46.9221416,18.3827202 46.1980568,14.0555805 43.7438648,12.6415881 C41.3922158,11.2866629 37.5166419,12.7102833 33.5953861,16.1197394 C30.3871603,18.9092744 27.1086759,23.0399874 24.3727283,27.7799585 L24.3727266,27.7799614 Z" id="Shape" stroke="#BD6947" stroke-width="0.5" fill="#D6C0E8" sketch:type="MSShapeGroup"></path>
                <path d="M25.9475672,36.1229933 C23.299394,31.5526676 21.4284447,26.8374249 20.6527439,22.8763791 C19.7878019,18.4597652 20.3636719,15.1201154 21.8350055,14.2691237 C23.4008641,13.3634064 26.8132194,14.6360578 30.4010756,17.818985 C33.2472731,20.3438407 36.231825,24.1944338 38.8278214,28.6746733 C41.5547972,33.3809244 43.4490786,37.9250368 44.1819855,41.6244016 C45.0778131,46.1459491 44.4233185,49.6708392 42.8699349,50.5693059 C41.3937154,51.4231497 38.2825075,50.3294812 34.9366798,47.4528714 C31.8691333,44.8155265 28.6289515,40.7504975 25.9475614,36.1229832 L25.9475672,36.1229933 Z M24.3804102,37.0310611 C27.1582837,41.8250853 30.5241337,46.0477736 33.7558747,48.8262859 C37.6232774,52.1513252 41.4354424,53.491398 43.7767814,52.1371699 C46.1966263,50.7375478 46.9887449,46.4714608 45.9586857,41.2724008 C45.1821988,37.3530649 43.214112,32.6319036 40.3949796,27.7666075 C37.7083228,23.129904 34.6074965,19.1292966 31.6030533,16.4640615 C27.4924471,12.8173824 23.379419,11.2834122 20.9281563,12.7012613 C18.5782193,14.0604205 17.876998,18.1270215 18.8752736,23.2244705 C19.6919448,27.3947279 21.636542,32.2955812 24.3804043,37.0310509 L24.3804102,37.0310611 Z" id="Shape" stroke="#BD6947" stroke-width="0.5" fill="#D6C0E8" sketch:type="MSShapeGroup"></path>
            </g>
            <g id="React-Atom-Copy-7" sketch:type="MSLayerGroup" transform="translate(94.000000, 56.000000)">
                <polygon id="Star-1" fill="#FCF3C5" sketch:type="MSShapeGroup" points="32.5 41.8422439 30.1312091 64.8647031 31.1397584 41.742687 25.4441138 64.1749056 29.808508 41.4461383 20.9074026 62.8100125 28.534622 40.9589182 16.6177674 60.7991142 27.3452512 40.291411 12.6666344 58.1850693 26.2657449 39.4578434 9.13821522 55.0235918 25.319111 38.4759814 6.10771189 51.382063 24.5255252 37.3667517 3.63971437 47.3380959 23.9019015 36.1537957 1.78682372 42.9778804 23.4615314 34.8629653 0.588531111 38.3943472 23.2138005 33.5217725 0.0703760544 33.6851862 23.1639888 32.1588024 0.24340213 28.950765 23.313158 30.8031042 1.10392159 24.2919895 23.6581288 29.4835725 2.63359395 19.8081536 24.1915488 28.2283307 4.7998169 15.5948223 24.9020489 27.0641321 7.55642116 11.7417956 25.7744862 26.0157896 10.8446545 8.33119393 26.7902661 25.1056468 14.5944339 5.43570841 27.9277391 24.3531018 18.7258394 3.11705127 29.1626619 23.7741937 23.1508172 1.42464068 30.4687143 23.3812611 27.7750566 0.394547415 31.81806 23.1826786 32.5 0.0487261341 33.18194 23.1826786 37.2249434 0.394547415 34.5312857 23.3812611 41.8491828 1.42464068 35.8373381 23.7741937 46.2741606 3.11705127 37.0722609 24.3531018 50.4055661 5.43570841 38.2097339 25.1056468 54.1553455 8.33119393 39.2255138 26.0157896 57.4435788 11.7417956 40.0979511 27.0641321 60.2001831 15.5948223 40.8084512 28.2283307 62.3664061 19.8081536 41.3418712 29.4835725 63.8960784 24.2919895 41.686842 30.8031042 64.7565979 28.950765 41.8360112 32.1588024 64.9296239 33.6851862 41.7861995 33.5217725 64.4114689 38.3943472 41.5384686 34.8629653 63.2131763 42.9778804 41.0980985 36.1537957 61.3602856 47.3380959 40.4744748 37.3667517 58.8922881 51.382063 39.680889 38.4759814 55.8617848 55.0235918 38.7342551 39.4578434 52.3333656 58.1850693 37.6547488 40.291411 48.3822326 60.7991142 36.465378 40.9589182 44.0925974 62.8100125 35.191492 41.4461383 39.5558862 64.1749056 33.8602416 41.742687 34.8687909 64.8647031 "></polygon>
                <ellipse id="Oval" stroke="#BD6947" fill="#D6C0E8" sketch:type="MSShapeGroup" cx="32.3877342" cy="32.3581516" rx="4.08524359" ry="4.08161522"></ellipse>
                <path d="M32.3877342,24.9649915 C37.673634,24.9649915 42.6955759,25.7096618 46.5155117,27.0235577 C50.7748343,28.4885611 53.3795018,30.6600025 53.3795018,32.3581516 C53.3795018,34.1648026 50.5678374,36.4774321 46.0133347,37.9851318 C42.4002034,39.1811908 37.5692416,39.8326724 32.3877342,39.8326724 C26.94468,39.8326724 22.05923,39.1938859 18.4874765,37.9740981 C14.121798,36.4832288 11.3959667,34.1509572 11.3959667,32.3581516 C11.3959667,30.6549828 13.9017786,28.5130131 18.0695762,27.0612077 C21.8912277,25.7300788 27.0359713,24.9649915 32.3877342,24.9649915 L32.3877342,24.9649915 Z M32.3877342,23.1537576 C26.8437238,23.1537576 21.4997604,23.9484714 17.4737864,25.3507684 C12.655753,27.0290761 9.58473281,29.6541862 9.58473281,32.3581516 C9.58473281,35.1521191 12.8828842,37.9740784 17.9021256,39.6881379 C21.6857687,40.9802881 26.7611322,41.6439063 32.3877342,41.6439063 C37.7498867,41.6439063 42.7687444,40.9670859 46.5825362,39.704602 C51.8011292,37.9770652 55.1907357,35.189071 55.1907357,32.3581516 C55.1907357,29.6448318 52.0199732,27.0014522 47.104621,25.310806 C43.0833936,23.9276744 37.8642185,23.1537576 32.3877342,23.1537576 L32.3877342,23.1537576 Z" id="Shape" stroke="#BD6947" stroke-width="0.5" fill="#D6C0E8" sketch:type="MSShapeGroup"></path>
                <path d="M25.9413997,28.6854077 C28.5819729,24.1106707 31.7363743,20.1362956 34.7838188,17.4865591 C38.182087,14.5318306 41.3663871,13.3621368 42.839653,14.2109731 C44.4064854,15.1137098 45.006951,18.7020995 44.0389161,23.3968682 C43.2709383,27.1213421 41.4224707,31.6278264 38.8340654,36.1122621 C36.1149487,40.823125 33.1205987,44.7321796 30.2786774,47.2141187 C26.8048933,50.2479975 23.4206226,51.4421655 21.8652098,50.5460085 C20.3881399,49.6949171 19.7829102,46.4566001 20.6062259,42.1243614 C21.3611248,38.1520649 23.2678218,33.3173645 25.9414014,28.6854047 L25.9413997,28.6854077 Z M24.3727266,27.7799614 C21.6028975,32.5786728 19.6221937,37.601028 18.8268393,41.7862024 C17.8749679,46.7948937 18.6169153,50.7647271 20.9609728,52.115379 C23.3826677,53.5106477 27.476683,52.0660405 31.4701062,48.5783275 C34.4808209,45.9489758 37.5917711,41.8877024 40.4027423,37.0177017 C43.0815826,32.3765866 45.0021056,27.6944341 45.8128319,23.7626426 C46.9221416,18.3827202 46.1980568,14.0555805 43.7438648,12.6415881 C41.3922158,11.2866629 37.5166419,12.7102833 33.5953861,16.1197394 C30.3871603,18.9092744 27.1086759,23.0399874 24.3727283,27.7799585 L24.3727266,27.7799614 Z" id="Shape" stroke="#BD6947" stroke-width="0.5" fill="#D6C0E8" sketch:type="MSShapeGroup"></path>
                <path d="M25.9475672,36.1229933 C23.299394,31.5526676 21.4284447,26.8374249 20.6527439,22.8763791 C19.7878019,18.4597652 20.3636719,15.1201154 21.8350055,14.2691237 C23.4008641,13.3634064 26.8132194,14.6360578 30.4010756,17.818985 C33.2472731,20.3438407 36.231825,24.1944338 38.8278214,28.6746733 C41.5547972,33.3809244 43.4490786,37.9250368 44.1819855,41.6244016 C45.0778131,46.1459491 44.4233185,49.6708392 42.8699349,50.5693059 C41.3937154,51.4231497 38.2825075,50.3294812 34.9366798,47.4528714 C31.8691333,44.8155265 28.6289515,40.7504975 25.9475614,36.1229832 L25.9475672,36.1229933 Z M24.3804102,37.0310611 C27.1582837,41.8250853 30.5241337,46.0477736 33.7558747,48.8262859 C37.6232774,52.1513252 41.4354424,53.491398 43.7767814,52.1371699 C46.1966263,50.7375478 46.9887449,46.4714608 45.9586857,41.2724008 C45.1821988,37.3530649 43.214112,32.6319036 40.3949796,27.7666075 C37.7083228,23.129904 34.6074965,19.1292966 31.6030533,16.4640615 C27.4924471,12.8173824 23.379419,11.2834122 20.9281563,12.7012613 C18.5782193,14.0604205 17.876998,18.1270215 18.8752736,23.2244705 C19.6919448,27.3947279 21.636542,32.2955812 24.3804043,37.0310509 L24.3804102,37.0310611 Z" id="Shape" stroke="#BD6947" stroke-width="0.5" fill="#D6C0E8" sketch:type="MSShapeGroup"></path>
            </g>
        </g>
    </g>
</svg>